<?xml version="1.0" standalone="no"?>
<!DOCTYPE svg PUBLIC "-//W3C//DTD SVG 20010904//EN"
 "http://www.w3.org/TR/2001/REC-SVG-20010904/DTD/svg10.dtd">
<svg version="1.0" xmlns="http://www.w3.org/2000/svg"
 width="2000.000000pt" height="1125.000000pt" viewBox="0 0 2000.000000 1125.000000"
 preserveAspectRatio="xMidYMid meet">

<g transform="translate(0.000000,1125.000000) scale(0.100000,-0.100000)"
fill="#000000" stroke="none">
<path d="M12498 9543 c-11 -14 -13 -33 -9 -85 7 -78 26 -104 75 -106 36 -1 46
13 46 66 0 30 -48 120 -71 132 -23 13 -23 13 -41 -7z"/>
<path d="M12576 9162 c-9 -11 -16 -32 -16 -48 0 -16 -1 -42 -3 -59 -19 -149
-18 -145 -53 -172 -24 -18 -41 -23 -58 -19 -46 11 -109 -32 -112 -77 -1 -10
-3 -19 -5 -20 -52 -29 -72 -37 -97 -37 -20 0 -33 6 -37 18 -3 9 -26 33 -50 54
-37 30 -50 36 -82 33 -86 -8 -96 -88 -25 -197 26 -41 42 -77 40 -90 -3 -20
-51 -57 -113 -87 -33 -17 -65 -48 -65 -65 0 -8 -4 -17 -9 -21 -10 -6 -8 -66 4
-146 5 -35 4 -49 -6 -55 -23 -14 -42 -14 -53 1 -21 27 -140 36 -162 12 -6 -7
-14 -24 -18 -39 -5 -24 -3 -27 27 -33 17 -4 41 -14 52 -21 11 -8 31 -14 46
-14 39 0 79 -36 79 -70 0 -31 -45 -90 -70 -90 -8 0 -30 -18 -48 -40 l-32 -39
21 -35 c16 -28 18 -38 8 -54 -16 -25 -4 -73 16 -66 20 8 68 -43 60 -64 -3 -9
-9 -30 -12 -47 -2 -16 -10 -40 -16 -53 -9 -18 -8 -25 2 -31 7 -5 18 -19 25
-32 6 -13 26 -33 43 -44 18 -11 32 -27 33 -36 0 -8 5 -20 12 -27 9 -9 7 -17
-8 -34 -11 -13 -26 -35 -33 -49 -7 -15 -24 -32 -37 -38 -18 -8 -24 -18 -24
-44 0 -41 -41 -84 -90 -93 -19 -4 -44 -13 -55 -21 -11 -7 -27 -13 -35 -13 -24
0 -84 -66 -77 -85 10 -23 36 -29 55 -12 9 8 54 33 99 56 45 22 84 45 87 50 7
10 114 16 197 11 9 -1 34 -19 57 -40 33 -29 42 -45 42 -70 0 -26 9 -41 42 -71
48 -45 58 -83 46 -173 -6 -46 -5 -64 7 -83 19 -28 71 -31 118 -6 46 25 98 42
111 38 6 -3 24 -7 40 -9 36 -6 76 -43 76 -70 1 -28 33 -66 57 -66 10 0 29 -9
43 -20 31 -24 67 -25 91 -4 19 17 80 25 124 16 30 -5 95 -70 95 -94 0 -24 68
-98 90 -98 21 0 60 45 60 69 0 9 7 29 15 45 8 15 15 37 15 48 0 11 5 28 11 39
9 18 18 20 71 15 33 -3 66 -10 74 -17 17 -14 82 -4 105 17 15 13 21 13 55 -1
21 -9 46 -23 57 -32 23 -22 95 -18 122 6 52 45 73 52 118 40 23 -7 44 -13 47
-13 3 -1 10 -4 15 -8 6 -3 35 -9 65 -13 48 -6 59 -4 84 16 25 20 27 26 22 63
-4 23 -18 62 -31 88 -14 26 -24 51 -23 55 0 5 -2 16 -6 25 -5 10 -4 35 1 55
l9 38 49 -2 c28 -2 69 -4 92 -5 51 -4 62 7 78 69 8 33 19 52 36 60 33 17 77
16 96 -2 12 -12 18 -13 29 -4 8 6 20 9 29 6 8 -4 17 -2 20 3 4 6 23 10 44 10
31 0 43 -7 77 -44 21 -24 48 -56 59 -70 32 -42 67 -56 129 -52 31 3 60 7 66
11 17 10 12 83 -7 106 -10 11 -56 39 -103 60 -190 89 -195 92 -195 130 0 19
-11 51 -25 73 -14 21 -33 52 -42 69 -9 16 -22 35 -27 40 -21 21 -11 54 26 90
27 28 45 37 70 37 27 0 35 5 44 27 15 39 4 68 -43 119 -40 44 -41 45 -29 84 6
22 22 50 35 62 42 42 54 70 40 96 -13 26 -65 62 -89 62 -8 0 -24 9 -35 20 -16
16 -19 28 -14 63 8 54 -8 87 -40 87 -18 0 -25 7 -29 28 -8 38 32 93 112 153
33 24 34 28 25 60 -8 28 -17 36 -53 48 -28 9 -50 11 -60 5 -9 -5 -43 -9 -76
-9 -50 0 -61 3 -70 21 -5 11 -29 38 -52 61 -24 22 -43 49 -43 61 0 25 -10 32
-75 53 -59 19 -76 40 -56 71 22 35 31 78 21 103 -10 26 9 55 101 153 53 58
101 144 92 168 -7 18 -27 18 -43 -1 -7 -8 -18 -15 -24 -15 -19 0 -110 -118
-126 -163 -14 -40 -72 -107 -92 -107 -5 0 -39 -12 -75 -26 -53 -21 -70 -24
-85 -15 -10 6 -24 11 -32 11 -8 0 -23 18 -34 41 -16 32 -19 53 -15 94 3 29 3
65 -1 80 -6 23 -11 26 -34 21 -15 -3 -41 -8 -58 -12 -38 -7 -74 10 -74 36 0
10 -4 22 -10 25 -5 3 -7 18 -4 33 4 20 -1 33 -19 50 -16 15 -27 20 -32 13 -3
-6 -19 -11 -34 -11 -15 0 -37 -9 -49 -20 -12 -11 -27 -20 -35 -20 -7 0 -24
-11 -36 -24 -29 -31 -107 -41 -164 -21 -23 8 -50 15 -60 15 -16 0 -56 -18 -67
-31 -3 -3 -21 -9 -40 -13 -48 -9 -85 14 -140 87 -69 92 -123 123 -154 89z"/>
<path d="M12553 6325 c-41 -17 -59 -50 -57 -100 1 -22 2 -50 3 -61 2 -36 45
-40 86 -8 31 24 35 31 35 74 0 64 -10 110 -24 110 -6 -1 -25 -7 -43 -15z"/>
<path d="M17263 6025 c-73 -58 -43 -241 56 -333 95 -89 162 -120 197 -91 29
24 45 82 46 164 1 94 0 98 -34 150 -39 60 -87 101 -142 119 -66 22 -85 20
-123 -9z"/>
<path d="M6223 5991 c-23 -21 -33 -41 -38 -75 -8 -53 1 -70 49 -90 25 -10 36
-10 61 2 40 20 37 16 45 69 9 59 -4 99 -35 107 -13 3 -29 8 -37 11 -7 3 -27
-8 -45 -24z"/>
<path d="M17940 5775 c-7 -8 -18 -15 -24 -15 -11 0 -38 -64 -36 -85 5 -64 14
-106 26 -116 8 -6 14 -24 14 -39 0 -16 14 -58 30 -95 33 -73 44 -175 22 -197
-7 -7 -12 -20 -12 -29 0 -55 -129 -138 -222 -144 -25 -2 -70 -10 -100 -18 -29
-9 -66 -17 -82 -19 -21 -2 -34 -12 -46 -35 -10 -18 -22 -38 -27 -45 -6 -7 -13
-26 -17 -41 -11 -45 -87 -62 -145 -32 -16 8 -31 12 -34 8 -4 -3 -23 9 -43 26
-20 18 -47 36 -59 41 -13 5 -49 42 -81 82 -67 83 -237 258 -252 258 -5 0 -15
7 -23 16 -12 15 -45 35 -128 78 -39 20 -135 26 -152 9 -6 -6 -5 -21 2 -42 6
-17 9 -46 5 -63 -4 -21 1 -43 15 -72 37 -71 39 -76 39 -85 0 -9 49 -65 127
-144 41 -41 87 -70 96 -60 4 3 20 -8 36 -26 18 -19 39 -31 54 -31 14 0 28 -4
32 -9 7 -12 64 -41 80 -41 7 0 24 -6 38 -13 31 -16 147 -123 147 -135 0 -5 6
-15 14 -21 19 -16 24 -61 14 -131 -9 -67 -34 -112 -100 -180 -60 -63 -74 -93
-60 -126 7 -14 10 -29 8 -33 -3 -4 1 -28 9 -54 22 -75 -10 -168 -77 -221 -29
-23 -57 -82 -58 -124 -1 -51 46 -109 110 -138 39 -17 80 -52 80 -68 0 -6 7
-24 15 -40 18 -35 20 -58 7 -108 -5 -20 -7 -40 -4 -43 3 -3 5 -62 4 -130 -3
-125 -3 -125 22 -137 17 -7 30 -8 38 -1 7 6 26 13 42 17 23 6 34 2 57 -20 16
-15 26 -31 23 -36 -7 -11 15 -78 26 -78 5 0 17 -17 27 -37 16 -33 23 -39 63
-44 95 -14 166 -53 208 -117 42 -63 63 -80 103 -87 21 -4 43 -13 50 -21 6 -7
15 -11 21 -8 5 3 16 0 24 -7 8 -6 17 -9 21 -6 3 3 18 0 34 -8 15 -8 39 -15 53
-15 14 0 30 -8 35 -18 12 -23 9 -85 -5 -103 -33 -42 -34 -149 -3 -149 7 0 20
-7 28 -15 9 -8 34 -17 56 -20 35 -6 43 -3 64 19 28 29 51 87 51 128 0 15 4 29
9 32 4 3 8 23 8 45 0 61 74 142 130 141 10 0 45 -15 78 -33 46 -25 65 -41 80
-73 11 -23 36 -57 56 -77 30 -31 43 -37 77 -37 71 0 100 48 116 190 5 47 18
90 31 100 20 17 150 14 187 -4 17 -9 37 -16 43 -16 7 0 31 -17 54 -37 36 -33
43 -45 48 -90 5 -48 4 -53 -14 -53 -35 0 -80 -29 -93 -60 -31 -75 26 -147 123
-156 60 -6 79 -24 123 -114 15 -30 33 -68 42 -85 23 -48 33 -86 37 -148 3 -34
12 -69 23 -85 10 -15 23 -39 30 -54 17 -40 68 -59 127 -46 36 8 57 6 95 -6 27
-9 55 -16 62 -16 7 0 24 -9 38 -20 14 -11 32 -20 40 -20 15 0 80 -75 80 -91 0
-19 -34 -67 -77 -108 -46 -44 -48 -49 -50 -105 -2 -33 2 -65 8 -72 6 -8 8 -21
5 -30 -7 -18 73 -104 97 -104 44 0 115 84 116 137 0 29 21 125 34 158 9 22 13
345 15 1263 2 1056 0 1232 -12 1232 -8 0 -16 -7 -20 -15 -12 -32 -168 -12
-191 26 -4 5 -14 9 -24 9 -26 0 -45 26 -71 98 -14 39 -23 86 -23 126 -1 57 5
74 52 169 61 123 72 192 37 240 -11 15 -24 27 -29 27 -5 0 -21 8 -35 19 -15
10 -43 21 -63 25 -21 4 -54 22 -79 45 -23 21 -63 46 -89 55 -38 14 -50 25 -69
64 -23 49 -28 77 -14 86 5 3 9 19 10 35 0 17 10 50 20 75 44 98 1 166 -96 151
-48 -7 -74 -19 -104 -47 -47 -46 -109 0 -101 75 7 59 -10 71 -99 71 -63 1 -72
-1 -90 -24 -11 -14 -31 -37 -44 -52 -13 -15 -24 -33 -24 -39 0 -6 -9 -24 -21
-40 -16 -23 -28 -29 -59 -29 -21 0 -41 4 -44 9 -3 4 -23 11 -45 15 -22 3 -56
16 -74 29 -19 13 -61 29 -93 36 -32 7 -63 17 -69 21 -11 8 -122 22 -167 21
-15 0 -30 4 -33 9 -4 6 -13 10 -22 10 -23 0 -76 49 -91 84 -8 17 -16 47 -18
66 -12 111 -24 181 -33 199 -6 11 -9 26 -6 33 3 7 -6 25 -20 41 -29 31 -84 37
-105 12z"/>
<path d="M16231 5714 c-49 -25 -64 -89 -36 -144 10 -19 24 -31 38 -32 46 -3
81 4 103 20 32 24 57 86 49 122 -7 30 -26 37 -89 31 -10 0 -24 3 -30 7 -6 5
-21 3 -35 -4z"/>
<path d="M6269 5659 c-8 -5 -24 -9 -36 -9 -72 0 -103 -48 -110 -174 -5 -87 -4
-96 18 -127 27 -40 70 -79 85 -79 6 0 21 -11 33 -24 20 -21 22 -34 23 -135 1
-111 1 -112 30 -136 27 -23 31 -24 57 -10 33 16 41 33 41 80 0 18 7 38 15 45
8 7 15 18 15 26 0 7 12 24 26 37 27 25 28 34 23 191 -1 32 2 61 8 65 5 3 16
26 25 51 34 91 -15 189 -99 196 -21 2 -61 5 -89 8 -28 2 -58 0 -65 -5z"/>
<path d="M6610 5096 c-15 -15 -12 -78 5 -100 31 -41 90 20 83 83 -3 22 -8 25
-40 27 -21 0 -42 -4 -48 -10z"/>
<path d="M7225 4921 c-16 -4 -41 -14 -55 -21 -14 -8 -28 -14 -31 -15 -12 0
-109 -100 -109 -112 0 -7 -4 -13 -9 -13 -5 0 -12 -8 -15 -17 -4 -10 -17 -36
-30 -58 -12 -22 -39 -70 -59 -107 -51 -95 -61 -112 -68 -118 -12 -12 -49 -78
-49 -90 0 -7 -21 -55 -47 -107 -38 -76 -55 -99 -90 -123 -24 -17 -53 -30 -63
-30 -11 0 -45 17 -76 38 -78 52 -101 105 -114 264 -8 99 -14 127 -35 163 -14
24 -33 46 -42 49 -29 12 -83 -6 -103 -33 -11 -14 -24 -32 -30 -38 -21 -25 -47
-99 -59 -165 -13 -74 -65 -184 -108 -228 -24 -25 -82 -56 -88 -48 -49 61 -75
104 -75 123 0 13 -4 26 -9 29 -5 3 -11 20 -14 38 -17 110 -50 172 -93 176 -47
5 -103 -23 -110 -56 -3 -15 -10 -40 -15 -56 -14 -45 -9 -98 11 -131 67 -106
80 -215 25 -215 -13 0 -27 -4 -30 -10 -13 -22 -46 -8 -93 39 -76 76 -140 77
-172 2 -10 -26 -10 -37 3 -70 17 -41 52 -84 77 -93 9 -3 22 -30 29 -59 8 -30
17 -58 21 -64 13 -18 -16 -105 -41 -123 -53 -38 -93 -58 -129 -66 -49 -10 -61
-28 -73 -109 -9 -66 -9 -83 6 -125 31 -84 31 -125 2 -168 -33 -49 -78 -76
-113 -69 -41 9 -209 4 -228 -7 -19 -11 -73 0 -116 23 -10 5 -28 9 -40 9 -13 1
-41 8 -63 16 -47 18 -136 24 -183 11 -31 -8 -43 -16 -95 -65 -10 -9 -25 -40
-33 -70 -15 -50 -15 -57 3 -105 27 -76 69 -95 183 -83 42 4 86 14 120 27 14 5
52 11 85 14 33 2 87 9 120 15 33 5 99 10 147 10 48 0 99 5 113 10 36 14 89
-11 137 -64 40 -45 48 -83 26 -133 -14 -31 -59 -96 -70 -101 -5 -2 -8 -9 -8
-15 0 -6 -7 -18 -15 -26 -8 -9 -17 -34 -20 -56 -6 -32 -2 -46 15 -68 12 -15
25 -25 29 -22 15 9 78 -15 98 -37 40 -43 25 -234 -23 -289 -8 -8 -14 -20 -14
-26 0 -5 -9 -18 -20 -28 -11 -10 -20 -23 -20 -30 0 -6 -11 -22 -25 -35 -14
-13 -25 -28 -25 -33 0 -5 -11 -17 -23 -28 -13 -10 -32 -40 -42 -66 -10 -26
-22 -53 -26 -59 -5 -6 -12 -57 -15 -113 -7 -101 -6 -102 20 -130 24 -25 32
-27 65 -21 22 4 52 18 69 31 26 21 142 154 134 154 -5 0 16 53 45 115 14 30
31 66 37 80 22 51 86 137 125 168 31 25 53 33 94 37 48 4 57 2 78 -21 21 -23
23 -34 25 -136 l2 -111 45 -44 c52 -53 71 -52 123 6 30 31 36 34 53 24 11 -7
35 -15 53 -18 70 -11 88 -17 88 -27 0 -6 3 -8 7 -5 3 4 12 2 18 -3 18 -15 69
14 84 47 7 16 14 57 16 93 3 74 21 125 57 158 22 20 28 21 59 11 42 -14 147
-119 155 -157 3 -15 9 -36 14 -48 4 -11 11 -50 15 -85 20 -207 24 -237 41
-328 9 -46 29 -110 45 -141 16 -32 29 -61 29 -66 0 -12 99 -84 115 -84 7 0 23
9 36 19 22 18 24 26 22 113 -1 94 -36 255 -66 302 -7 11 -22 50 -32 86 -10 36
-22 69 -27 74 -4 6 -8 18 -8 28 0 10 -3 18 -7 18 -15 0 -98 155 -108 200 -10
44 -6 119 7 145 6 11 25 32 42 47 17 15 38 34 46 42 9 8 25 15 35 16 81 1 185
12 208 22 33 13 49 39 42 70 -3 13 -7 48 -10 78 -3 30 -8 75 -11 100 -5 52 21
111 83 187 39 47 37 36 33 208 -1 53 5 157 11 181 3 13 -9 58 -38 139 -23 67
-24 71 -8 112 11 29 43 68 98 121 178 170 194 190 178 221 -18 32 -99 40 -149
15 -18 -8 -36 -13 -40 -10 -5 3 -25 -8 -45 -25 -35 -29 -39 -30 -128 -28 -92
2 -93 3 -131 40 -21 20 -38 41 -38 46 0 6 -7 25 -16 42 -20 40 -15 122 9 166
9 17 25 48 35 70 11 22 27 46 36 54 9 7 16 18 16 23 0 5 35 52 78 105 42 52
88 112 102 133 14 21 35 43 48 49 12 6 22 18 22 27 0 9 11 25 25 36 14 11 25
26 25 34 0 8 5 14 10 14 15 0 67 119 96 219 31 108 31 150 -1 185 -25 27 -38
29 -90 17z"/>
<path d="M5304 4697 c-33 -16 -54 -60 -54 -110 0 -39 4 -49 28 -66 49 -35 78
-36 117 -7 32 25 35 32 35 77 0 63 -13 87 -55 105 -39 16 -41 16 -71 1z"/>
<path d="M4666 4122 c-3 -5 -30 -7 -61 -5 -49 3 -61 -1 -90 -24 -19 -15 -41
-45 -49 -68 -15 -39 -17 -107 -4 -120 4 -4 4 -13 2 -20 -7 -17 13 -54 40 -77
26 -22 104 -53 113 -45 3 4 14 2 23 -3 13 -7 21 -5 30 5 7 8 19 15 26 15 8 0
19 11 24 25 5 14 14 25 20 25 5 0 10 13 10 29 0 17 4 32 9 35 35 22 -4 206
-43 206 -5 0 -17 7 -27 16 -9 8 -20 11 -23 6z"/>
<path d="M7487 4073 c-24 -23 12 -55 38 -33 12 10 13 16 4 26 -12 15 -31 18
-42 7z"/>
<path d="M16417 3990 c-66 -12 -87 -32 -87 -87 0 -24 4 -51 9 -61 5 -9 12 -25
15 -34 10 -32 64 -55 143 -63 75 -7 76 -7 106 23 57 57 52 146 -10 188 -24 16
-107 45 -123 42 -3 0 -27 -4 -53 -8z"/>
<path d="M7785 3213 c-29 -8 -44 -33 -44 -73 1 -58 11 -72 53 -75 29 -1 41 3
56 23 26 32 26 82 0 110 -21 22 -29 24 -65 15z"/>
<path d="M16913 2879 c-54 -15 -105 -94 -73 -114 6 -3 10 -17 10 -30 0 -18 8
-26 35 -35 23 -8 40 -8 48 -2 7 5 26 12 42 16 52 13 75 43 75 98 0 41 -3 50
-22 57 -42 15 -83 18 -115 10z"/>
<path d="M7582 2390 c-12 -5 -27 -20 -33 -34 -19 -40 -4 -72 44 -95 37 -18 47
-19 75 -9 48 18 69 90 35 120 -23 20 -91 30 -121 18z"/>
<path d="M5680 1138 c-31 -51 -25 -93 17 -109 32 -12 58 3 71 40 29 83 -44
140 -88 69z"/>
<path d="M5990 1088 c-6 -18 -16 -41 -21 -50 -17 -33 30 -121 79 -147 19 -10
30 -10 56 3 18 9 38 22 44 29 19 22 6 111 -22 156 -25 39 -29 41 -75 41 -46 0
-49 -2 -61 -32z"/>
</g>
</svg>
