<?xml version="1.0" standalone="no"?>
<!DOCTYPE svg PUBLIC "-//W3C//DTD SVG 20010904//EN"
 "http://www.w3.org/TR/2001/REC-SVG-20010904/DTD/svg10.dtd">
<svg version="1.0" xmlns="http://www.w3.org/2000/svg"
 width="1625.000000pt" height="739.000000pt" viewBox="0 0 1625.000000 739.000000"
 preserveAspectRatio="xMidYMid meet">

<g transform="translate(0.000000,739.000000) scale(0.100000,-0.100000)"
fill="#000000" stroke="none">
<path d="M3990 6660 c0 -5 -10 -10 -22 -10 -31 -1 -101 -42 -113 -67 -6 -12
-16 -27 -22 -35 -7 -8 -15 -33 -19 -56 -4 -23 -11 -45 -15 -48 -12 -7 -12
-104 0 -104 4 0 11 -21 14 -47 6 -54 33 -113 50 -113 28 -1 -30 -30 -59 -30
-18 0 -35 -4 -38 -9 -3 -5 -37 -12 -76 -16 -39 -4 -72 -11 -75 -15 -3 -5 -29
-11 -58 -15 -28 -4 -56 -11 -62 -15 -5 -4 -28 -11 -50 -15 -22 -4 -44 -10 -50
-15 -5 -4 -35 -13 -65 -20 -30 -7 -59 -16 -65 -20 -5 -4 -26 -11 -45 -15 -19
-4 -39 -11 -45 -15 -5 -4 -25 -11 -42 -15 -18 -3 -33 -10 -33 -15 0 -4 -16
-11 -35 -14 -19 -4 -35 -11 -35 -16 0 -4 -14 -11 -31 -15 -38 -9 -441 -212
-451 -228 -4 -7 -8 -8 -8 -3 0 4 -15 -3 -34 -17 -18 -14 -45 -29 -60 -33 -14
-3 -26 -10 -26 -15 0 -4 -16 -15 -35 -24 -19 -9 -39 -23 -46 -31 -6 -8 -17
-14 -25 -14 -7 0 -17 -6 -21 -12 -9 -15 -37 -33 -70 -48 -13 -5 -23 -14 -23
-19 0 -5 -8 -12 -17 -15 -29 -10 -67 -34 -78 -49 -5 -7 -17 -17 -25 -21 -42
-20 -56 -30 -126 -90 -23 -20 -45 -36 -50 -36 -5 0 -20 -13 -34 -30 -14 -16
-29 -30 -35 -30 -6 0 -55 -45 -109 -99 -59 -59 -104 -97 -113 -94 -8 3 -18 -7
-27 -28 -18 -44 -62 -86 -69 -67 -3 7 -6 0 -6 -15 -1 -30 -1 -31 -55 -93 -20
-23 -36 -47 -36 -53 0 -6 -4 -11 -9 -11 -5 0 -12 -13 -16 -30 -4 -16 -10 -30
-15 -30 -5 0 -11 -13 -15 -30 -4 -16 -11 -30 -15 -30 -5 0 -12 -16 -16 -35 -3
-19 -10 -38 -15 -40 -4 -3 -11 -33 -15 -66 -4 -37 -12 -63 -20 -66 -18 -7 -18
-43 0 -43 9 0 15 -22 20 -77 3 -43 11 -79 16 -81 6 -2 10 -12 10 -23 0 -23 39
-99 51 -99 5 0 9 -6 9 -13 0 -8 9 -22 20 -32 11 -10 20 -22 20 -27 0 -11 -41
-70 -59 -84 -11 -9 -13 -31 -8 -109 4 -54 11 -101 16 -104 5 -3 11 -15 14 -26
4 -18 5 -18 6 3 0 12 5 22 10 22 6 0 13 20 17 45 3 25 10 45 14 45 4 0 10 23
14 50 7 55 13 60 38 30 15 -17 16 -22 3 -47 -8 -15 -15 -36 -15 -45 0 -10 -4
-18 -9 -18 -6 0 -13 -21 -17 -47 -3 -27 -10 -52 -14 -58 -4 -5 -10 -24 -13
-41 -5 -26 -1 -36 26 -61 18 -17 40 -33 50 -36 9 -4 17 -11 17 -16 0 -5 13
-12 30 -16 16 -4 30 -10 30 -15 0 -5 13 -11 30 -15 16 -4 30 -10 30 -15 0 -5
13 -11 30 -15 16 -4 30 -10 30 -15 0 -5 14 -11 30 -15 16 -4 30 -10 30 -15 0
-5 15 -12 33 -16 17 -3 48 -15 67 -25 19 -11 42 -19 50 -19 9 0 21 -5 28 -12
19 -19 26 -1 10 24 -10 15 -18 64 -23 138 -4 63 -10 120 -15 125 -4 6 -10 35
-13 65 -3 30 -12 69 -21 85 -20 37 -20 45 -1 45 8 0 17 -12 20 -27 4 -16 10
-36 16 -45 5 -10 9 -26 9 -35 0 -10 6 -30 14 -44 7 -14 16 -39 20 -55 7 -31
37 -96 48 -104 3 -3 10 -18 13 -33 6 -22 4 -27 -11 -27 -14 0 -15 -3 -6 -12
10 -10 15 -10 22 2 14 23 23 4 28 -58 3 -42 0 -62 -10 -73 -13 -13 -10 -15 26
-15 22 -1 42 -6 44 -13 2 -6 26 -13 53 -17 27 -4 52 -10 54 -15 3 -4 31 -11
63 -15 31 -3 62 -10 67 -14 6 -5 52 -11 103 -15 50 -4 92 -11 92 -15 0 -4 90
-11 200 -15 137 -5 200 -11 200 -19 0 -6 4 -4 10 4 7 11 13 12 32 3 13 -7 77
-15 143 -18 66 -4 122 -10 125 -15 3 -4 41 -11 85 -15 44 -4 85 -11 91 -16 7
-6 24 -8 38 -5 14 3 28 0 31 -5 4 -5 21 -9 40 -9 19 0 36 -4 40 -10 3 -5 12
-7 20 -3 9 3 21 0 28 -5 7 -6 33 -14 57 -18 25 -4 50 -10 55 -14 6 -4 27 -10
47 -14 44 -8 102 -36 76 -36 -10 0 -18 -4 -18 -9 0 -4 -19 -11 -41 -14 -23 -3
-45 -10 -48 -15 -3 -6 -20 -14 -36 -18 -17 -4 -39 -13 -50 -20 -11 -8 -30 -14
-42 -14 -13 0 -23 -4 -23 -10 0 -5 -16 -12 -35 -16 -19 -3 -35 -10 -35 -15 0
-5 -6 -9 -14 -9 -10 0 -14 9 -13 27 1 20 -3 28 -17 31 -17 4 -18 0 -11 -34 6
-37 6 -38 -12 -22 -15 14 -20 14 -30 2 -7 -7 -13 -17 -13 -23 0 -11 -24 -21
-51 -21 -10 0 -19 -4 -19 -9 0 -6 -20 -13 -45 -17 -25 -3 -45 -10 -45 -15 0
-4 -22 -11 -50 -15 -27 -4 -50 -10 -50 -14 0 -5 -27 -11 -60 -15 -33 -4 -63
-11 -66 -16 -3 -5 -10 -6 -16 -3 -6 4 -13 2 -17 -3 -3 -6 -23 -13 -44 -16 -33
-5 -36 -4 -22 9 14 14 20 34 11 34 -2 0 -20 -16 -40 -34 -29 -29 -45 -36 -96
-42 -33 -4 -60 -10 -60 -14 0 -5 -29 -12 -65 -15 -36 -4 -68 -11 -71 -16 -9
-16 -34 -10 -35 9 0 13 -2 14 -6 2 -9 -22 -24 -30 -60 -30 -18 0 -33 -4 -33
-9 0 -5 -32 -12 -70 -16 -39 -4 -72 -11 -75 -15 -3 -4 -35 -11 -72 -15 -38 -4
-72 -11 -78 -15 -5 -4 -40 -11 -77 -15 -68 -7 -68 -7 -68 18 0 13 -7 30 -15
37 -13 11 -15 7 -15 -28 0 -23 -4 -43 -10 -47 -5 -3 -39 -8 -75 -12 -36 -3
-65 -10 -65 -14 0 -13 -40 -11 -41 1 -1 6 -3 15 -4 20 -1 6 -3 13 -4 18 0 4
-10 -8 -21 -25 -18 -30 -24 -33 -70 -33 -27 0 -50 -4 -50 -9 0 -4 -32 -11 -72
-15 -71 -6 -118 -31 -118 -61 0 -6 -18 -29 -40 -50 -34 -33 -40 -45 -40 -80 0
-23 5 -46 10 -51 14 -14 15 -103 1 -117 -13 -13 -15 -83 -2 -92 6 -3 13 -26
17 -52 5 -33 15 -53 38 -74 l31 -28 -22 -20 c-16 -15 -35 -21 -68 -21 -25 0
-45 4 -45 9 0 4 -19 11 -42 14 -24 3 -44 11 -46 16 -6 19 -39 12 -45 -8 -6
-26 0 -31 38 -31 19 0 39 -8 50 -20 10 -11 24 -20 31 -20 14 0 38 -46 48 -92
4 -16 10 -28 15 -28 5 0 23 -12 40 -26 48 -40 38 -82 -22 -98 -22 -5 -28 -12
-25 -28 5 -32 36 -47 52 -25 18 24 23 22 31 -16 9 -43 51 -85 92 -93 39 -7 41
-15 9 -39 -20 -15 -22 -21 -11 -32 8 -7 31 -13 53 -13 34 0 41 -3 46 -26 8
-29 -1 -64 -15 -64 -5 0 -9 -15 -9 -34 0 -25 5 -35 20 -39 38 -10 60 3 60 35
0 27 2 29 17 17 13 -11 17 -11 20 -1 5 14 33 16 33 2 0 -5 4 -10 9 -10 5 0 26
-16 47 -35 21 -19 44 -35 51 -35 8 0 16 -8 20 -17 13 -37 36 -53 75 -53 55 0
73 -21 73 -85 0 -36 6 -57 18 -69 19 -19 63 -18 60 2 -2 6 2 12 7 12 6 0 10
18 10 40 0 31 -4 40 -17 40 -10 0 -25 5 -33 10 -13 8 -12 11 4 23 14 10 17 21
12 40 -8 35 1 34 39 -5 60 -61 64 -63 163 -66 71 -3 95 -8 99 -19 3 -8 1 -19
-6 -26 -6 -6 -11 -24 -11 -41 l0 -29 24 22 c15 14 22 30 19 42 -3 10 -2 26 1
36 6 15 9 14 19 -6 7 -13 21 -29 32 -35 11 -6 22 -14 25 -18 3 -3 18 -10 33
-13 15 -4 27 -12 27 -19 0 -8 2 -8 8 0 4 6 39 15 77 19 39 4 72 11 75 15 3 5
82 11 175 14 93 4 174 11 179 16 6 6 26 10 45 10 36 0 36 1 37 45 2 65 26 108
73 131 34 16 41 25 47 58 6 38 39 83 49 67 2 -5 21 -12 40 -15 19 -4 35 -11
35 -17 0 -5 11 -14 25 -19 14 -5 30 -20 35 -32 6 -16 7 -1 4 47 -6 76 4 125
27 135 7 4 24 12 36 18 32 17 34 15 27 -14 -5 -20 -3 -25 7 -22 8 2 15 17 17
31 2 15 10 27 18 27 8 0 22 4 32 9 30 16 77 35 87 37 14 1 46 14 66 24 9 5 20
6 23 3 13 -13 5 -80 -14 -116 -23 -42 -27 -117 -7 -117 6 0 20 -14 30 -31 18
-33 23 -89 7 -89 -5 0 -10 -7 -10 -15 0 -8 5 -15 10 -15 6 0 10 -7 10 -15 0
-8 -4 -15 -9 -15 -5 0 -11 -9 -14 -20 -3 -11 -2 -19 1 -17 4 2 18 8 32 14 14
6 52 23 85 39 33 16 65 29 70 30 27 5 55 17 55 25 0 5 4 8 8 6 8 -2 244 113
252 124 3 3 16 10 30 14 13 4 30 14 38 21 7 8 20 14 28 14 8 0 14 4 14 8 0 4
12 13 28 19 30 14 64 34 72 45 3 3 18 10 33 13 15 4 27 10 27 14 0 9 51 35 63
33 4 -1 7 2 7 7 0 5 14 12 30 16 17 4 30 10 30 14 0 4 24 20 53 35 57 29 89
48 97 57 3 3 12 9 20 13 8 4 33 18 55 32 22 13 48 27 58 30 9 4 17 10 17 15 0
5 7 9 15 9 9 0 18 6 21 14 3 8 19 18 35 21 16 4 29 10 29 14 0 3 20 17 45 31
25 14 45 28 45 32 0 5 3 7 8 6 24 -5 152 104 152 129 0 6 9 18 21 29 11 10 32
43 46 74 14 30 29 63 34 73 6 10 7 22 4 27 -3 5 0 12 5 15 8 5 6 13 -6 26 -9
10 -19 38 -21 63 -5 43 -5 45 18 39 23 -6 23 -6 6 14 -16 19 -16 20 1 36 10
10 30 17 44 17 24 0 27 5 33 50 4 27 11 52 16 56 5 3 9 17 9 30 0 43 24 22 34
-29 5 -26 13 -47 17 -47 4 0 11 -21 15 -47 4 -27 11 -51 16 -54 5 -3 12 -68
15 -143 3 -75 10 -139 15 -142 4 -3 8 -21 8 -40 0 -29 3 -34 24 -34 36 0 49
23 42 77 -3 27 -6 60 -6 76 0 15 -4 27 -9 27 -5 0 -13 35 -16 78 -4 42 -11 79
-16 82 -4 3 -11 66 -15 140 -7 134 -7 135 13 117 25 -22 35 -22 57 4 18 21 17
22 -8 47 -25 25 -26 25 -46 7 -20 -18 -20 -18 -20 11 0 63 9 74 55 74 41 0 75
-21 75 -48 0 -15 64 -46 68 -32 2 5 10 10 18 10 8 0 14 6 14 14 0 8 5 16 11
18 14 5 -11 51 -45 83 -39 36 -34 49 16 41 23 -4 45 -11 48 -16 3 -4 18 -12
33 -15 15 -4 27 -11 27 -15 0 -5 14 -11 30 -15 17 -4 30 -10 30 -15 0 -5 14
-11 30 -15 17 -4 30 -10 30 -15 0 -5 14 -11 30 -15 17 -4 30 -10 30 -15 0 -9
40 -34 73 -46 9 -3 17 -10 17 -15 0 -5 10 -14 23 -19 39 -17 58 -33 145 -123
118 -121 165 -142 212 -92 22 23 22 27 9 52 -23 45 -77 90 -101 85 -5 -1 -8 2
-8 6 0 5 -20 19 -45 31 -25 12 -45 26 -45 31 0 5 -13 11 -28 15 -15 3 -39 19
-52 35 -14 17 -29 30 -34 30 -20 0 -247 213 -261 247 -20 45 -15 48 84 51 69
2 97 -1 103 -10 5 -9 8 -5 8 13 0 26 -49 82 -92 103 -13 6 -27 21 -33 34 -5
12 -13 22 -17 22 -5 0 -8 7 -8 15 0 8 3 15 8 15 4 0 12 10 17 22 19 41 57 51
179 49 88 -2 101 -5 118 -24 l20 -22 -5 23 c-3 12 -2 22 1 22 77 4 231 1 244
-5 33 -14 173 -1 191 17 21 20 22 64 3 84 -17 17 -201 20 -211 4 -4 -6 -85
-10 -211 -10 -129 0 -204 4 -204 10 0 6 -26 10 -59 10 -49 0 -65 4 -90 26 -17
14 -31 32 -31 39 0 20 59 65 86 65 13 0 24 4 24 9 0 5 42 12 93 16 75 6 98 12
125 32 37 28 42 59 11 68 -26 9 -129 -3 -129 -15 0 -4 -12 -11 -27 -15 -15 -3
-31 -11 -34 -17 -4 -6 -38 -13 -76 -15 -77 -6 -113 6 -113 37 0 22 145 180
165 180 7 0 15 7 19 15 3 8 10 15 16 15 7 0 37 22 69 50 32 27 62 50 68 50 6
0 13 3 15 8 4 9 65 52 74 52 3 0 23 13 44 30 21 17 43 30 49 30 6 0 11 4 11 9
0 5 8 11 18 15 9 3 35 17 57 31 22 13 48 27 58 31 9 3 17 10 17 14 0 4 18 18
41 29 52 27 89 68 89 97 0 22 -4 24 -45 24 -31 0 -47 -5 -51 -15 -4 -8 -11
-15 -18 -15 -7 0 -30 -18 -51 -40 -21 -22 -44 -40 -49 -40 -6 0 -22 -11 -36
-25 -44 -43 -97 -85 -108 -85 -6 0 -15 -6 -19 -12 -11 -17 -69 -58 -83 -58 -5
0 -10 -5 -10 -10 0 -6 -10 -15 -22 -20 -30 -13 -61 -33 -69 -43 -8 -11 -47
-34 -71 -43 -10 -3 -18 -10 -18 -15 0 -5 -3 -8 -7 -7 -9 3 -125 -53 -133 -63
-3 -3 -16 -10 -30 -14 -14 -4 -28 -12 -31 -17 -3 -4 -34 -9 -68 -9 -67 -1 -81
7 -81 48 0 25 38 103 50 103 5 0 11 13 15 30 4 16 10 30 15 30 4 0 11 12 14
26 4 14 18 36 31 48 14 13 25 28 25 33 0 5 9 18 20 28 11 10 20 26 20 36 0 10
4 21 10 24 6 4 5 14 -3 28 -6 12 -13 24 -14 25 -1 2 -14 1 -30 -2 -30 -7 -47
-34 -59 -93 -4 -18 -18 -44 -32 -58 -16 -16 -26 -39 -28 -65 -4 -45 -35 -85
-53 -67 -7 7 -15 6 -26 -3 -14 -12 -14 -15 0 -30 13 -15 13 -19 -8 -38 -24
-23 -89 -30 -115 -14 -32 21 -49 76 -45 142 2 36 8 74 13 85 5 11 11 41 15 68
3 26 10 47 15 47 4 0 11 27 15 60 4 33 11 60 16 60 6 0 9 6 8 13 -1 6 1 19 5
29 4 9 6 31 4 50 -3 29 -6 33 -33 33 -25 0 -30 -4 -33 -27 -2 -16 -7 -28 -12
-28 -5 0 -12 -29 -15 -65 -4 -36 -11 -65 -15 -65 -4 0 -10 -27 -14 -60 -4 -33
-11 -60 -15 -60 -5 0 -11 -18 -14 -41 -8 -57 -56 -147 -95 -177 -30 -23 -35
-24 -60 -11 -52 25 -62 40 -62 86 0 51 -20 65 -51 37 -17 -15 -20 -27 -15 -60
9 -67 0 -84 -45 -84 -22 0 -39 5 -39 11 0 5 -4 8 -9 5 -13 -8 -48 36 -55 70
-6 25 -13 33 -39 38 -34 7 -87 51 -87 73 0 8 -6 16 -14 19 -8 3 -18 19 -21 35
-4 16 -10 29 -15 29 -5 0 -11 13 -15 30 -4 17 -10 30 -15 30 -13 0 -22 52 -11
63 7 7 17 5 31 -8 11 -10 20 -14 20 -10 0 4 9 -2 20 -15 11 -13 20 -20 20 -15
0 4 7 1 16 -6 10 -8 52 -15 113 -17 91 -4 98 -3 139 24 29 19 42 34 42 51 0
13 5 23 10 23 6 0 10 15 10 34 0 30 5 36 43 54 38 18 90 62 73 62 -4 0 -1 6 7
14 11 12 13 36 9 113 -2 54 -9 103 -14 110 -14 17 -6 182 9 195 7 6 13 16 13
23 0 7 7 15 15 19 8 3 15 12 15 19 0 8 7 21 16 28 14 11 16 33 13 143 -4 117
-2 129 14 132 9 1 17 -1 17 -6 0 -4 21 -11 48 -15 26 -4 52 -11 58 -16 6 -5
43 -12 83 -15 39 -4 74 -11 77 -15 7 -12 64 -11 64 0 0 5 19 12 41 16 47 8 89
49 127 124 19 36 24 64 25 130 2 60 -2 85 -10 88 -7 3 -13 10 -13 17 0 24
-107 116 -134 116 -14 0 -26 4 -26 9 0 6 -21 13 -47 17 -27 4 -50 10 -53 15
-3 4 -61 11 -128 15 -67 4 -122 11 -122 16 0 4 -14 8 -32 8 l-31 0 6 187 c5
120 11 189 18 194 7 4 11 40 11 90 0 69 -4 92 -24 128 -13 24 -33 49 -43 55
-11 6 -22 14 -25 18 -3 3 -18 10 -33 13 -15 4 -27 11 -27 15 0 5 -13 11 -30
15 -16 4 -30 10 -30 15 0 4 -22 10 -50 14 -27 4 -52 10 -54 15 -3 5 -26 12
-51 15 -24 4 -47 12 -51 17 -3 6 -12 8 -20 5 -7 -3 -16 -1 -19 3 -2 5 -21 12
-40 15 -19 4 -35 11 -35 16 0 6 -40 10 -90 10 -71 0 -92 -3 -96 -15 -4 -8 -11
-15 -18 -15 -7 0 -30 -18 -51 -41 -22 -22 -62 -50 -88 -62 -48 -22 -49 -24
-123 -174 -58 -119 -79 -153 -94 -153 -13 0 -21 9 -25 28 -4 15 -10 35 -16 44
-5 10 -9 22 -9 27 0 17 -45 80 -57 81 -7 0 -13 6 -13 14 0 8 -5 16 -11 18 -6
2 -5 14 5 33 16 30 16 30 -13 33 -25 3 -29 8 -35 42 -6 38 -33 99 -49 111 -5
3 -7 12 -6 20 3 19 -19 67 -53 110 -15 20 -28 40 -28 44 0 18 -78 83 -120 100
-8 4 -23 11 -32 16 -23 12 -68 12 -68 -1z m973 -397 c-3 -10 -17 -30 -31 -45
-14 -16 -22 -28 -16 -28 5 0 4 -4 -3 -8 -6 -4 -38 -59 -70 -122 -56 -108 -62
-115 -96 -123 -20 -5 -37 -13 -37 -18 0 -5 -7 -9 -15 -9 -22 0 -18 -31 5 -37
21 -6 25 -20 11 -41 -10 -17 -91 -29 -91 -14 0 10 78 173 101 212 5 8 20 38
35 66 22 43 35 56 81 79 30 14 53 29 50 31 -7 8 56 73 70 74 8 0 10 -7 6 -17z
m397 -92 c0 -5 15 -12 34 -15 19 -4 49 -20 67 -37 l32 -29 -8 -113 c-3 -61
-11 -116 -16 -121 -5 -6 -9 -52 -9 -104 0 -78 -2 -92 -13 -83 -8 6 -17 8 -20
4 -4 -3 -7 -1 -7 5 0 7 -11 12 -25 12 -14 0 -25 4 -25 9 0 6 -9 8 -21 6 -11
-2 -28 0 -37 5 -31 16 -57 23 -79 21 -13 -1 -23 2 -23 7 0 5 -19 12 -41 15
-23 3 -45 10 -48 14 -3 5 -14 12 -23 16 -40 15 -5 79 96 177 42 40 76 78 76
83 0 5 9 20 20 34 11 14 20 36 20 49 0 13 5 24 10 24 6 0 10 7 10 15 0 8 7 15
15 15 8 0 15 -4 15 -9z m-1348 -143 c10 -10 18 -21 18 -25 0 -4 18 -26 41 -49
42 -43 59 -68 81 -116 7 -16 16 -28 20 -28 15 0 9 -88 -7 -94 -8 -3 -15 -12
-15 -21 0 -8 -6 -15 -14 -15 -8 0 -16 -5 -18 -11 -5 -14 -120 -30 -132 -18 -6
5 -18 9 -28 9 -10 0 -18 4 -18 9 0 5 -22 15 -50 22 -27 7 -50 16 -50 20 0 4
-13 10 -30 14 -16 4 -30 10 -30 15 0 5 -15 12 -32 15 -18 4 -39 12 -47 18 -7
6 -39 10 -72 10 -73 -2 -118 -29 -161 -94 -21 -34 -33 -95 -19 -103 5 -4 8
-12 5 -19 -2 -7 9 -26 26 -42 16 -16 30 -32 30 -36 0 -4 -18 -10 -40 -14 -22
-4 -42 -10 -45 -15 -3 -5 -23 -11 -45 -15 -22 -4 -42 -10 -45 -15 -3 -4 -22
-11 -42 -15 -21 -4 -43 -11 -49 -16 -7 -5 -16 -9 -20 -8 -17 2 -54 -13 -54
-23 0 -6 -7 -8 -15 -5 -8 4 -17 2 -19 -2 -3 -5 -19 -11 -36 -14 -16 -4 -42
-14 -57 -24 -15 -10 -31 -18 -37 -18 -10 0 -93 -36 -126 -55 -8 -5 -67 -35
-130 -67 -63 -32 -117 -61 -120 -64 -3 -4 -16 -10 -30 -14 -14 -4 -40 -19 -57
-33 -18 -13 -33 -21 -33 -18 0 4 -15 -4 -33 -18 -19 -15 -39 -26 -46 -26 -6 0
-14 -6 -17 -14 -3 -8 -17 -17 -32 -21 -15 -4 -29 -10 -32 -13 -8 -11 -68 -52
-76 -52 -4 0 -17 -11 -30 -25 -13 -14 -29 -25 -36 -25 -7 -1 -2 -10 12 -21 42
-35 90 -21 156 45 65 65 99 73 110 29 4 -16 12 -31 18 -35 8 -5 7 -13 -1 -28
-7 -11 -13 -25 -13 -32 0 -16 -41 -58 -57 -58 -7 0 -13 -4 -13 -9 0 -5 -18
-12 -41 -16 -23 -4 -51 -17 -63 -28 -26 -27 -48 -67 -35 -67 5 0 9 -6 9 -13 0
-8 9 -22 19 -31 27 -25 133 -26 159 -3 10 10 24 17 30 17 7 0 12 5 12 10 0 6
6 10 13 10 7 0 28 16 47 35 19 19 40 35 46 35 7 0 17 6 21 13 10 15 69 57 82
57 5 0 11 7 15 15 3 8 15 15 26 15 21 0 27 -14 10 -25 -5 -3 -10 -28 -10 -55
0 -46 -1 -49 -32 -55 -18 -4 -39 -11 -48 -15 -8 -4 -46 -22 -85 -41 -75 -35
-102 -58 -125 -102 -13 -27 -12 -29 43 -85 31 -32 57 -67 57 -78 0 -11 -20
-40 -45 -64 -25 -24 -45 -50 -45 -56 0 -7 -5 -14 -11 -16 -7 -2 -6 -12 3 -29
19 -37 42 -57 72 -65 14 -3 26 -10 26 -15 0 -5 29 -9 65 -9 37 0 65 4 65 10 0
6 14 10 30 10 17 0 30 -4 30 -10 0 -5 9 -10 21 -10 47 0 139 -81 139 -124 0
-6 5 -17 12 -24 7 -7 14 -52 16 -107 l4 -95 -96 0 c-59 0 -95 4 -91 10 3 5 13
6 21 3 12 -4 15 0 12 23 -4 36 -38 48 -38 13 0 -40 -19 -7 -30 51 -6 30 -17
71 -26 90 -19 41 -84 111 -96 104 -4 -3 -8 -1 -8 5 0 6 -16 13 -35 17 -19 3
-38 10 -41 15 -13 22 -104 -9 -104 -35 0 -7 -9 -21 -20 -31 -14 -13 -18 -25
-13 -44 3 -14 9 -28 13 -31 4 -3 11 -16 15 -28 4 -13 13 -31 21 -40 44 -51 63
-81 55 -86 -5 -4 -28 -3 -51 0 -34 6 -44 12 -58 42 -23 48 -92 86 -139 79 -19
-4 -45 -18 -58 -32 -24 -25 -49 -32 -59 -16 -3 5 -23 12 -43 16 -21 4 -51 17
-68 29 -16 13 -50 26 -75 29 -25 3 -59 13 -75 21 -17 9 -38 16 -47 16 -10 0
-18 4 -18 9 0 5 -14 12 -30 16 -17 4 -30 10 -30 15 0 5 -14 11 -30 15 -17 4
-30 11 -30 16 0 5 -3 8 -7 7 -7 -2 -39 13 -101 45 -12 6 -22 15 -22 19 0 5 -5
8 -12 8 -16 0 -58 41 -58 57 0 7 -4 13 -9 13 -5 0 -13 15 -16 33 -4 17 -12 38
-18 45 -16 20 -15 214 1 220 6 2 12 10 12 19 0 15 24 75 41 103 5 8 15 26 21
40 7 14 25 41 40 61 15 20 28 40 28 44 0 4 23 32 50 63 28 31 50 61 50 67 0 6
40 51 90 100 50 49 90 86 90 81 0 -4 31 20 70 54 56 49 74 60 92 55 19 -5 20
-4 8 5 -12 9 -12 13 -2 17 8 3 28 18 45 32 18 15 40 30 50 34 9 4 17 11 17 17
0 5 7 10 15 10 8 0 15 7 15 15 0 8 5 15 10 15 12 0 73 41 78 53 2 4 7 5 11 2
5 -2 19 7 31 20 13 14 30 25 37 25 8 0 16 6 19 14 3 8 19 18 35 21 16 4 29 10
29 15 0 4 19 18 43 30 23 12 44 25 47 29 3 3 18 13 34 21 56 29 66 35 66 42 0
5 6 8 13 8 16 0 187 87 207 105 9 8 20 12 23 8 4 -3 7 -1 7 5 0 6 14 13 30 17
17 4 30 11 30 16 0 5 9 9 20 9 11 0 45 13 75 29 30 16 68 32 85 36 16 4 30 10
30 15 0 4 16 11 35 14 19 4 35 11 35 15 0 5 20 12 45 15 25 4 45 11 45 15 0 5
20 12 45 15 25 4 45 11 45 15 0 5 21 11 46 15 26 3 52 10 58 15 6 5 28 12 49
16 31 6 37 4 37 -10 0 -26 44 -15 48 12 3 19 12 24 53 29 27 4 49 10 49 15 0
4 36 11 80 15 44 3 82 10 85 13 2 4 27 7 56 7 38 0 58 -5 71 -18z m-287 -1137
c-3 -6 -11 -11 -16 -11 -5 0 -4 6 3 14 14 16 24 13 13 -3z m558 -8 c-41 -5
-43 -22 -3 -29 17 -4 30 -11 30 -16 0 -6 6 -6 14 1 11 9 15 8 20 -5 10 -26 7
-42 -10 -59 -21 -21 -3 -45 19 -26 12 9 15 3 21 -38 4 -27 12 -52 19 -55 9 -5
9 -7 0 -12 -15 -7 -17 -34 -3 -34 6 0 10 5 10 11 0 5 15 -1 33 -15 19 -14 48
-29 65 -32 31 -6 32 -8 32 -62 0 -38 -5 -61 -17 -74 -15 -17 -15 -20 9 -46 14
-15 29 -44 32 -64 5 -30 3 -40 -16 -57 -21 -20 -21 -22 -5 -38 15 -16 14 -18
-13 -35 -17 -10 -30 -25 -30 -33 0 -8 -4 -15 -10 -15 -5 0 -10 -7 -10 -15 0
-16 -16 -20 -24 -6 -3 5 -30 12 -61 16 -30 3 -57 10 -60 15 -3 4 -33 11 -67
15 -47 6 -67 13 -84 32 -19 21 -26 23 -38 13 -21 -17 -33 -6 -41 36 -7 42 -30
72 -38 51 -4 -9 -8 -9 -14 -1 -15 21 -49 25 -63 9 -10 -12 -10 -19 -2 -27 7
-7 12 -23 12 -36 0 -23 -3 -24 -37 -18 -21 3 -48 6 -60 6 -28 0 -30 16 -3 23
11 3 20 12 20 21 0 9 5 16 12 16 6 0 4 7 -5 18 -10 10 -17 23 -17 28 0 12 -36
34 -44 27 -11 -11 -6 -43 6 -43 9 0 9 -3 0 -12 -7 -7 -12 -23 -12 -36 0 -22
-2 -23 -47 -16 -27 3 -52 10 -58 14 -5 4 -29 11 -52 15 -23 3 -47 13 -54 21
-6 8 -18 14 -25 14 -8 0 -14 9 -14 19 0 28 -15 33 -34 12 -15 -16 -23 -17 -56
-9 -23 6 -40 17 -40 24 0 17 -17 18 -23 2 -3 -10 -7 -10 -18 -1 -8 6 -31 14
-51 18 -21 4 -42 13 -49 21 -6 8 -20 14 -30 14 -10 0 -20 4 -23 9 -3 5 -21 12
-40 15 -19 4 -36 10 -38 14 -2 4 -29 19 -60 35 -31 15 -60 31 -63 37 -3 5 7
17 22 27 15 10 38 28 49 41 12 12 26 22 31 22 5 0 18 9 28 20 10 11 24 20 32
20 7 0 13 5 13 12 0 6 3 8 6 5 4 -4 23 6 43 21 20 15 54 37 76 47 22 11 42 23
45 27 3 3 18 10 33 13 15 4 27 11 27 16 0 5 11 9 25 9 14 0 25 -5 25 -11 0 -6
12 -9 27 -7 20 2 29 10 33 28 7 30 60 43 60 15 0 -8 8 -19 18 -22 22 -9 37
-25 37 -39 0 -6 22 -35 48 -63 45 -48 52 -52 107 -58 46 -4 65 -2 85 11 14 9
25 13 25 9 0 -5 5 -1 10 7 7 12 12 12 21 3 9 -9 16 -9 24 -3 9 7 16 5 25 -5 7
-8 17 -15 23 -15 6 0 18 -6 26 -14 21 -18 81 -31 81 -17 0 5 -4 12 -9 16 -5 3
-13 19 -16 36 -9 41 -40 72 -66 64 -10 -4 -19 -3 -19 1 0 11 92 104 103 104 5
0 15 7 23 15 10 10 33 14 67 13 36 -1 42 -2 20 -5z m-1250 -81 c31 -32 34 -65
12 -110 -15 -30 -17 -30 -73 -25 -31 3 -63 10 -69 16 -15 11 -18 77 -4 77 5 0
12 16 15 35 7 34 9 35 50 35 33 0 48 -6 69 -28z m1337 -22 c0 -5 -2 -10 -4
-10 -3 0 -8 5 -11 10 -3 6 -1 10 4 10 6 0 11 -4 11 -10z m-1370 -339 c0 -5 14
-12 30 -16 17 -4 30 -10 30 -14 0 -7 60 -34 73 -32 4 0 7 -3 7 -8 0 -5 14 -12
30 -16 17 -4 30 -10 30 -15 0 -5 14 -12 32 -15 17 -4 50 -17 74 -30 23 -12 55
-25 70 -29 16 -4 43 -13 59 -20 64 -29 81 -35 123 -41 23 -4 42 -11 42 -16 0
-5 11 -9 25 -9 22 0 25 -4 25 -34 0 -39 26 -69 41 -45 5 8 9 22 9 32 0 22 52
24 74 2 18 -18 43 -19 49 -2 4 9 8 9 14 1 4 -7 36 -15 71 -19 34 -4 64 -10 67
-15 3 -4 43 -11 90 -15 50 -4 85 -11 85 -18 0 -17 32 -47 50 -47 10 0 23 7 30
15 14 17 70 21 70 5 0 -6 10 -8 24 -4 13 3 27 1 30 -5 4 -5 27 -13 51 -17 33
-4 52 -14 70 -36 14 -16 25 -33 25 -36 0 -4 16 -16 35 -26 26 -14 53 -19 107
-18 45 1 83 -4 100 -12 15 -8 40 -17 57 -21 17 -4 31 -10 31 -15 0 -5 14 -11
30 -15 17 -4 30 -10 30 -14 0 -3 12 -12 28 -19 53 -25 72 -37 72 -47 0 -5 12
-11 27 -12 14 0 30 -8 35 -17 5 -9 14 -16 20 -16 23 0 48 -34 48 -66 0 -77
-63 -82 -195 -13 -44 22 -91 45 -104 50 -22 9 -23 8 -17 -21 3 -17 18 -42 32
-56 28 -25 49 -55 60 -86 3 -10 10 -18 14 -18 4 0 11 -11 14 -25 9 -34 -24
-65 -68 -65 -19 0 -38 5 -41 10 -4 6 5 10 19 10 31 0 35 28 8 53 -33 30 -67 9
-64 -42 0 -18 -80 -9 -123 13 -16 9 -38 16 -47 16 -10 0 -18 4 -18 9 0 6 -20
13 -45 17 -25 3 -45 10 -45 15 0 4 -20 11 -45 15 -25 3 -45 10 -45 15 0 5 -8
9 -17 9 -9 0 -25 7 -35 17 -12 11 -33 16 -64 15 -25 -1 -60 4 -77 12 -18 8
-72 17 -122 20 -49 4 -92 11 -96 17 -3 6 -22 9 -42 8 -20 -2 -39 0 -43 4 -4 4
-16 7 -26 7 -13 0 -18 8 -18 30 0 17 -4 30 -10 30 -5 0 -10 7 -10 15 0 8 5 15
10 15 13 0 13 47 0 55 -8 5 -8 11 0 20 8 10 7 14 -2 17 -14 5 -48 -33 -48 -54
0 -19 -20 -38 -40 -38 -9 0 -26 -10 -38 -23 -21 -22 -53 -29 -68 -14 -4 4 -20
7 -36 7 -30 0 -39 23 -13 34 16 6 19 35 9 74 -6 23 -28 27 -71 16 -17 -5 -23
-15 -25 -43 -3 -31 -7 -36 -30 -39 -16 -2 -28 1 -28 7 0 6 -10 11 -23 11 -12
0 -31 6 -42 14 -11 7 -35 17 -52 21 -18 3 -33 11 -33 16 0 5 -9 9 -19 9 -12 0
-24 12 -32 29 -7 17 -22 32 -32 35 -13 3 -17 10 -14 20 4 10 1 16 -8 16 -9 0
-15 -9 -15 -21 0 -19 -4 -21 -32 -15 -18 3 -35 10 -38 15 -3 5 -18 13 -33 16
-15 4 -27 11 -27 15 0 5 -13 11 -30 15 -16 4 -30 10 -30 15 0 5 -14 11 -31 15
-17 4 -33 13 -36 21 -3 8 -10 14 -16 14 -15 0 -77 61 -77 76 0 7 -6 14 -12 17
-18 5 -18 149 0 155 6 2 12 15 12 28 0 14 7 27 15 30 8 4 15 11 15 17 0 16 91
107 107 107 7 0 13 -4 13 -9z m1892 -404 c5 -22 21 -55 38 -75 16 -20 28 -37
26 -39 -2 -2 -41 16 -87 40 -62 32 -85 49 -87 65 -2 12 1 22 7 22 6 0 11 7 11
16 0 12 9 14 42 12 40 -3 43 -5 50 -41z m-3393 -61 c9 -10 8 -15 -2 -19 -8 -3
-13 3 -13 14 0 23 0 23 15 5z m195 -106 c7 -7 6 -14 -2 -22 -18 -18 -15 -40
18 -104 16 -32 30 -67 30 -77 0 -9 6 -26 12 -37 10 -15 10 -22 0 -32 -6 -6
-12 -20 -12 -30 0 -15 -9 -18 -61 -18 -47 0 -65 4 -75 18 -15 20 -19 88 -5 97
6 3 13 26 17 50 3 25 10 48 15 51 11 7 12 91 1 96 -5 2 -12 15 -15 29 l-7 27
37 -19 c20 -10 41 -23 47 -29z m432 -160 c8 0 14 -4 14 -10 0 -5 -4 -10 -8
-10 -12 0 -32 22 -31 35 0 5 3 4 6 -2 2 -7 11 -13 19 -13z m390 -70 c30 0 34
-3 34 -26 0 -17 -6 -28 -20 -31 -11 -3 -20 -9 -20 -14 0 -16 -49 -10 -70 8
-11 10 -20 30 -20 46 0 28 2 29 31 23 17 -3 47 -6 65 -6z m3094 -39 c-12 -23
-30 -28 -30 -9 0 14 34 48 38 37 2 -4 -2 -17 -8 -28z m-60 -85 c0 -8 -7 -16
-15 -20 -8 -3 -15 -12 -15 -21 0 -8 -7 -15 -15 -15 -11 0 -10 7 6 35 22 36 39
46 39 21z m-463 -38 c-3 -8 -6 -5 -6 6 -1 11 2 17 5 13 3 -3 4 -12 1 -19z
m-277 -152 c0 -8 6 -16 13 -19 10 -4 10 -7 0 -18 -7 -7 -13 -21 -13 -31 0 -10
-5 -18 -12 -18 -21 0 -58 43 -58 67 0 25 10 29 28 11 9 -9 12 -8 12 5 0 9 7
17 15 17 8 0 15 -6 15 -14z m-181 -29 c13 -16 5 -27 -21 -27 -11 0 -18 7 -18
20 0 23 22 27 39 7z m257 -38 c3 -6 -1 -18 -10 -27 -15 -15 -16 -14 -16 11 0
27 13 36 26 16z m-106 -59 c0 -21 20 -40 42 -40 13 0 18 8 18 25 0 16 6 25 15
25 11 0 15 -11 15 -39 0 -22 5 -41 10 -43 6 -2 13 -43 17 -91 l6 -88 -33 -34
c-44 -45 -82 -46 -130 -5 -19 16 -40 29 -45 30 -19 0 -40 65 -40 122 1 52 4
61 35 93 25 26 39 33 57 29 26 -7 31 7 8 26 -8 7 -15 19 -15 28 0 13 3 12 20
-3 11 -10 20 -26 20 -35z m500 -10 c16 -16 20 -33 20 -89 0 -39 -4 -73 -10
-76 -5 -3 -10 -13 -10 -22 0 -22 -39 -63 -60 -63 -9 0 -29 14 -45 30 -16 17
-34 30 -40 30 -11 0 -45 -35 -45 -48 0 -4 -36 -45 -80 -91 -44 -46 -80 -88
-80 -93 0 -5 -20 -33 -45 -61 -25 -29 -45 -56 -45 -61 0 -5 -29 -41 -65 -81
-36 -40 -65 -76 -65 -80 0 -3 -28 -38 -62 -76 -35 -39 -66 -79 -70 -90 -10
-25 -37 -36 -50 -18 -7 10 -8 6 -4 -13 5 -21 2 -28 -8 -28 -8 0 -16 6 -19 13
-3 9 -7 9 -20 -1 -10 -9 -15 -27 -14 -56 2 -39 -3 -49 -56 -109 -31 -36 -57
-68 -57 -72 0 -4 -18 -29 -40 -55 -22 -26 -40 -52 -40 -58 0 -6 -11 -19 -25
-30 -14 -11 -25 -24 -25 -29 0 -6 -9 -18 -20 -28 -11 -10 -20 -23 -20 -28 0
-5 -10 -20 -22 -31 -26 -25 -44 -51 -58 -83 -5 -13 -14 -23 -20 -23 -5 0 -10
-6 -10 -13 0 -7 -11 -24 -25 -39 -22 -24 -47 -38 -161 -90 -28 -13 -54 -7 -68
14 -15 25 1 34 23 14 20 -18 41 -15 41 6 0 5 14 27 30 48 17 21 30 42 30 47 0
5 23 34 50 65 28 31 50 60 50 64 0 4 17 26 39 48 91 97 141 153 141 160 0 5
36 47 80 95 44 49 80 91 80 96 0 4 25 32 55 61 30 30 55 57 55 61 0 6 65 80
145 166 25 26 45 51 45 55 0 4 23 30 50 57 28 27 50 53 50 58 0 5 18 27 40 48
22 22 40 43 40 47 0 5 13 21 30 37 16 16 28 31 25 33 -3 3 5 10 17 16 11 6 26
20 32 31 6 11 34 43 61 71 54 55 95 108 95 123 0 5 7 11 15 15 8 3 15 17 15
31 0 14 5 25 10 25 6 0 10 5 10 12 0 16 61 78 77 78 7 0 22 -9 33 -20z m-592
-303 c5 -24 -24 -21 -31 4 -4 15 -1 19 11 17 9 -2 18 -11 20 -21z m-598 4 c0
-5 15 -12 34 -15 44 -8 61 -30 62 -76 0 -39 23 -72 46 -68 16 4 14 -130 -2
-146 -5 -5 -10 -20 -10 -33 0 -16 -4 -21 -15 -17 -10 4 -15 0 -15 -15 0 -14
-6 -21 -20 -21 -11 0 -20 -4 -20 -9 0 -5 -13 -12 -30 -16 -16 -4 -30 -10 -30
-15 0 -5 -13 -11 -30 -15 -16 -4 -30 -10 -30 -15 0 -5 -14 -11 -30 -15 -17 -4
-55 -20 -85 -36 -30 -16 -64 -29 -75 -29 -11 0 -20 -5 -20 -11 0 -5 -4 -8 -9
-4 -5 3 -12 1 -16 -5 -3 -5 -15 -10 -25 -10 -31 0 -33 -19 -6 -41 26 -21 32
-50 20 -96 -7 -27 -51 -32 -60 -8 -4 8 -11 15 -18 15 -16 0 -36 46 -24 58 6 6
8 17 6 26 -3 14 -6 14 -31 1 -15 -8 -43 -17 -62 -21 -19 -3 -35 -10 -35 -14 0
-4 -20 -11 -45 -14 -25 -4 -45 -11 -45 -15 0 -5 -20 -12 -45 -15 -25 -4 -45
-11 -45 -16 0 -5 -20 -12 -45 -16 -25 -3 -45 -10 -45 -15 0 -4 -22 -11 -50
-15 -27 -4 -50 -10 -50 -14 0 -5 -22 -11 -50 -15 -27 -4 -52 -11 -55 -15 -3
-4 -29 -11 -58 -15 -28 -4 -57 -11 -63 -16 -6 -5 -33 -12 -60 -15 -27 -4 -55
-11 -61 -17 -7 -5 -19 -7 -28 -4 -8 4 -17 2 -20 -3 -4 -6 -21 -10 -40 -10 -19
0 -37 -5 -40 -10 -3 -6 -17 -8 -31 -6 -13 3 -24 0 -24 -5 0 -5 -11 -9 -25 -9
-23 0 -25 4 -25 46 0 37 -4 47 -20 51 -14 4 -20 14 -20 33 0 40 25 63 61 55
16 -4 29 -3 29 2 0 4 3 18 6 31 5 16 2 22 -10 22 -13 0 -14 3 -4 19 6 10 18
17 25 14 21 -8 15 12 -12 41 -28 31 -32 58 -10 76 8 7 15 21 15 31 0 12 -5 16
-15 13 -8 -4 -15 -12 -15 -19 0 -6 -9 -20 -20 -30 -11 -10 -20 -24 -20 -32 0
-7 -4 -13 -10 -13 -16 0 -12 -27 5 -34 18 -7 20 -31 3 -45 -7 -6 -29 -24 -48
-41 -28 -24 -43 -30 -82 -30 -45 0 -62 13 -41 33 9 10 10 57 1 57 -5 0 -12 -8
-15 -17 -4 -10 -9 -20 -12 -23 -3 -3 -11 -14 -17 -25 -7 -13 -28 -23 -58 -29
-42 -7 -50 -6 -70 13 -17 16 -30 20 -50 15 -32 -8 -56 10 -56 42 0 34 -13 30
-45 -12 -27 -35 -30 -36 -76 -31 -40 5 -49 3 -49 -9 0 -24 -70 -14 -84 11 -6
11 -14 22 -17 25 -14 13 -17 40 -4 50 10 9 15 4 20 -22 14 -65 55 -82 55 -23
0 19 -5 35 -11 35 -18 0 -5 42 16 54 11 6 22 14 25 18 3 4 39 10 80 13 41 3
77 10 78 15 2 6 18 8 38 4 22 -4 34 -2 34 5 0 6 17 11 38 11 20 0 73 9 117 20
44 11 92 20 107 20 15 0 29 4 32 9 3 5 37 12 76 16 39 4 72 11 75 15 3 4 33
11 67 15 35 4 65 11 68 15 3 4 25 10 50 14 36 6 43 5 33 -5 -17 -17 -16 -59 0
-59 8 0 21 8 31 19 15 16 15 19 1 31 -12 10 -13 16 -4 26 14 17 49 18 49 2 0
-6 7 -4 18 5 10 10 26 17 35 17 9 0 18 4 21 9 4 5 29 12 58 16 29 4 60 12 70
18 13 9 21 8 30 -1 17 -17 38 -15 38 3 0 8 7 15 15 15 8 0 15 4 15 9 0 5 18
12 40 16 22 4 42 10 45 15 3 5 23 11 45 15 22 4 42 10 45 15 3 5 23 11 45 15
22 4 42 11 46 16 3 5 10 7 15 3 5 -3 15 -1 22 4 7 5 26 12 42 16 17 4 44 13
60 21 63 29 103 45 113 45 6 0 23 6 39 14 49 25 101 46 114 46 7 0 21 -7 31
-17 17 -15 18 -14 18 15 0 22 5 32 15 32 8 0 15 5 15 10 0 6 20 10 45 10 25 0
45 -4 45 -9z m1395 -233 c-4 -18 -11 -37 -15 -43 -5 -5 -11 -27 -15 -47 -4
-21 -11 -38 -16 -38 -5 0 -9 -6 -9 -13 0 -8 -19 -13 -60 -14 -47 -1 -60 2 -60
14 0 18 24 43 43 43 8 0 22 9 32 20 10 11 24 20 32 20 10 0 12 6 8 21 -5 14 0
28 16 45 33 35 52 32 44 -8z m137 -65 c29 -26 24 -85 -11 -122 -16 -17 -39
-31 -50 -31 -18 0 -20 4 -15 28 4 15 12 36 19 48 8 12 17 37 20 58 8 41 11 43
37 19z m-634 -47 c38 -52 40 -75 7 -106 l-25 -23 -35 19 c-38 20 -53 61 -40
106 19 61 49 63 93 4z m-85 -246 c8 -32 -6 -55 -27 -47 -19 7 -22 57 -4 75 14
14 23 6 31 -28z m-250 -2 c12 -6 29 -15 37 -20 8 -5 23 -11 32 -14 10 -4 27
-27 39 -53 12 -25 25 -54 30 -63 12 -24 11 -85 -1 -93 -5 -3 -10 -13 -10 -22
0 -20 -39 -63 -57 -63 -7 0 -13 -4 -13 -10 0 -5 -13 -10 -30 -10 -17 0 -30 5
-30 13 0 15 -56 41 -70 32 -6 -4 -16 -18 -21 -32 -8 -22 -14 -25 -54 -21 -29
2 -45 -1 -45 -8 0 -14 -23 -24 -56 -24 -20 0 -24 5 -24 31 0 30 19 59 39 59 6
0 11 9 11 20 0 11 7 20 15 20 10 0 15 10 15 31 0 29 2 31 29 26 l28 -6 5 70
c5 65 8 73 44 110 41 42 52 45 87 27z m-2929 -27 c3 -5 23 -12 43 -16 74 -13
116 -82 75 -122 -52 -52 -101 -66 -134 -36 -17 15 -20 15 -41 -5 -58 -55 -128
-8 -130 86 0 34 35 82 60 82 7 0 13 5 13 10 0 12 107 13 114 1z m2274 -123
c-2 -30 -8 -43 -18 -43 -8 0 -16 8 -18 18 -6 30 7 67 24 67 12 0 14 -10 12
-42z m1164 -125 c7 -9 7 -13 0 -13 -5 0 -12 -9 -15 -20 -7 -28 -58 -27 -75 1
-16 25 -10 33 39 57 30 15 34 15 38 2 2 -8 8 -21 13 -27z m-3576 -2 c5 1 21
-3 37 -9 38 -16 37 -54 -3 -69 -23 -9 -30 -18 -30 -37 0 -35 -27 -34 -42 2 -6
15 -10 31 -9 36 1 4 -4 14 -10 22 -9 11 -8 18 1 29 7 8 9 15 5 15 -4 0 -2 7 5
15 9 11 16 12 25 5 7 -6 17 -10 21 -9z m2255 -51 c24 -24 29 -37 29 -79 0 -43
-4 -52 -29 -70 -25 -18 -32 -19 -53 -8 -32 16 -59 43 -75 75 -12 22 -11 31 7
68 12 23 27 45 33 48 22 9 59 -5 88 -34z m88 -73 c8 -10 7 -17 -1 -25 -19 -19
-28 -14 -28 13 0 27 12 32 29 12z m1201 -23 c11 -12 11 -18 -2 -30 -13 -13
-16 -12 -32 5 -19 21 -14 41 8 41 8 0 19 -7 26 -16z m8 -161 c-4 -35 -20 -39
-34 -8 -9 18 -9 25 0 29 27 11 37 5 34 -21z m12 -58 c0 -8 -7 -15 -15 -15 -8
0 -15 7 -15 15 0 8 7 15 15 15 8 0 15 -7 15 -15z m-1282 -38 c2 -27 -1 -37
-11 -37 -27 0 -38 24 -24 53 16 36 31 29 35 -16z m-134 -43 c22 -9 20 -24 -3
-24 -21 0 -34 13 -24 24 8 7 8 7 27 0z m519 -50 c12 -65 -33 -89 -71 -37 l-20
27 32 17 c43 24 53 23 59 -7z m-655 -22 c2 -7 9 -12 15 -12 15 0 47 -31 47
-46 0 -7 -15 -16 -32 -19 -18 -4 -37 -11 -43 -15 -5 -4 -26 -11 -45 -15 -19
-4 -41 -12 -47 -17 -26 -21 -43 0 -43 53 0 75 19 92 89 87 30 -3 57 -10 59
-16z m413 -75 c-13 -13 -26 -3 -16 12 3 6 11 8 17 5 6 -4 6 -10 -1 -17z m348
-34 c21 -5 23 -10 18 -47 -3 -22 -13 -45 -21 -52 -9 -6 -16 -16 -16 -23 0 -19
-42 -12 -67 11 -27 26 -30 73 -6 100 16 18 50 23 92 11z m-197 -70 c25 -23 24
-80 -2 -88 -24 -8 -40 1 -40 21 0 8 -4 14 -10 14 -16 0 -12 32 7 52 20 22 22
22 45 1z m-219 -17 c23 -18 20 -74 -5 -90 -25 -15 -50 3 -61 43 -13 53 24 79
66 47z m210 -146 c7 -28 -10 -35 -34 -14 -25 23 -24 34 5 34 15 0 26 -7 29
-20z m-969 -26 c19 -18 21 -45 4 -62 -27 -27 -78 -4 -78 35 0 40 45 57 74 27z"/>
<path d="M2826 5364 c-8 -21 -1 -28 19 -20 9 3 15 11 13 18 -7 19 -25 20 -32
2z"/>
<path d="M2185 5270 c-3 -5 -1 -10 4 -10 6 0 11 5 11 10 0 6 -2 10 -4 10 -3 0
-8 -4 -11 -10z"/>
<path d="M2171 4964 c0 -11 3 -14 6 -6 3 7 2 16 -1 19 -3 4 -6 -2 -5 -13z"/>
<path d="M1838 4943 c7 -3 16 -2 19 1 4 3 -2 6 -13 5 -11 0 -14 -3 -6 -6z"/>
<path d="M1678 4823 c6 -2 18 -2 25 0 6 3 1 5 -13 5 -14 0 -19 -2 -12 -5z"/>
<path d="M1732 4783 c2 -10 10 -18 18 -18 8 0 16 8 18 18 2 12 -3 17 -18 17
-15 0 -20 -5 -18 -17z"/>
<path d="M1981 4744 c0 -11 3 -14 6 -6 3 7 2 16 -1 19 -3 4 -6 -2 -5 -13z"/>
<path d="M1680 4625 c0 -8 5 -15 10 -15 6 0 10 7 10 15 0 8 -4 15 -10 15 -5 0
-10 -7 -10 -15z"/>
<path d="M1560 4172 c0 -12 23 -32 37 -32 7 0 13 9 13 20 0 15 -7 20 -25 20
-14 0 -25 -4 -25 -8z"/>
<path d="M2297 4096 c-5 -14 10 -36 25 -36 4 0 8 11 8 25 0 27 -24 35 -33 11z"/>
<path d="M1965 4030 c-4 -6 -3 -16 3 -22 6 -6 12 -6 17 2 4 6 3 16 -3 22 -6 6
-12 6 -17 -2z"/>
<path d="M2887 3863 c-4 -3 -7 -19 -7 -35 0 -24 4 -28 30 -28 25 0 30 4 30 23
0 35 -33 60 -53 40z"/>
<path d="M4315 4710 c-3 -5 1 -10 10 -10 9 0 13 5 10 10 -3 6 -8 10 -10 10 -2
0 -7 -4 -10 -10z"/>
<path d="M3365 4691 c-7 -12 12 -24 25 -16 11 7 4 25 -10 25 -5 0 -11 -4 -15
-9z"/>
<path d="M3515 4680 c-3 -5 1 -10 10 -10 9 0 13 5 10 10 -3 6 -8 10 -10 10 -2
0 -7 -4 -10 -10z"/>
<path d="M3350 4624 c0 -8 5 -12 10 -9 6 4 8 11 5 16 -9 14 -15 11 -15 -7z"/>
<path d="M3397 4634 c-8 -8 1 -24 14 -24 5 0 9 7 9 15 0 15 -12 20 -23 9z"/>
<path d="M3714 4617 c-8 -9 -7 -16 2 -25 28 -25 75 -2 49 24 -17 17 -36 17
-51 1z"/>
<path d="M3982 4614 c-19 -21 -15 -38 18 -69 17 -16 30 -34 30 -41 0 -7 8 -17
18 -23 13 -8 15 -14 6 -28 -14 -24 -54 -30 -54 -9 0 9 -5 16 -11 16 -7 0 -18
8 -25 18 -12 16 -14 16 -37 -6 -21 -20 -25 -21 -37 -7 -22 26 -40 18 -40 -18
0 -36 15 -57 41 -57 9 0 22 -7 29 -15 25 -30 90 -5 90 34 0 9 6 11 18 6 43
-19 67 -17 78 8 10 22 8 26 -14 37 -21 9 -23 13 -11 21 7 5 22 9 32 9 23 0 22
9 -5 37 l-21 23 31 0 c22 0 32 5 32 15 0 8 -4 15 -9 15 -5 0 -11 9 -14 20 -7
28 -34 36 -56 16 -22 -20 -31 -20 -31 -2 0 17 -41 18 -58 0z"/>
<path d="M4270 4618 c0 -6 -7 -19 -15 -28 -14 -15 -13 -19 9 -43 14 -15 30
-27 36 -27 5 0 10 -8 10 -18 0 -21 29 -52 48 -52 7 0 12 -4 12 -10 0 -15 32
-12 54 5 11 8 29 12 40 10 25 -6 51 8 42 23 -3 6 -16 8 -28 4 -19 -5 -21 -2
-15 25 5 24 1 35 -17 52 -12 11 -27 21 -33 21 -6 0 -16 7 -23 15 -7 8 -28 15
-46 15 -19 0 -34 4 -34 8 0 4 -9 8 -20 9 -11 1 -20 -3 -20 -9z"/>
<path d="M3560 4565 c0 -8 7 -15 15 -15 8 0 15 7 15 15 0 8 -7 15 -15 15 -8 0
-15 -7 -15 -15z"/>
<path d="M4211 4554 c0 -11 3 -14 6 -6 3 7 2 16 -1 19 -3 4 -6 -2 -5 -13z"/>
<path d="M3582 4538 c-19 -19 -14 -28 18 -28 23 0 30 4 30 20 0 23 -29 27 -48
8z"/>
<path d="M3678 4520 c-9 -10 -19 -28 -23 -40 -5 -17 -2 -23 14 -27 12 -3 21
-9 21 -14 0 -5 9 -4 19 3 11 7 17 18 14 27 -5 12 -3 13 7 5 9 -9 17 -7 32 8
17 17 18 22 7 29 -8 5 -22 9 -31 9 -10 0 -18 5 -18 10 0 16 -23 10 -42 -10z"/>
<path d="M4247 4484 c-14 -15 -6 -34 14 -34 14 0 19 5 17 17 -3 18 -20 27 -31
17z"/>
<path d="M3410 4466 c0 -7 -7 -19 -15 -26 -21 -17 -19 -30 5 -30 11 0 20 -4
20 -10 0 -20 19 -9 32 18 12 24 11 29 -4 45 -22 20 -38 22 -38 3z"/>
<path d="M4172 4438 c-6 -6 -12 -20 -12 -29 0 -9 -7 -22 -15 -29 -20 -17 -19
-53 3 -73 38 -35 60 -3 25 35 -23 26 -2 49 27 30 19 -11 60 -17 60 -8 0 2 3
11 6 20 4 10 1 16 -8 16 -7 0 -18 10 -23 23 -11 25 -44 34 -63 15z"/>
<path d="M4380 4405 c0 -8 5 -15 10 -15 6 0 10 7 10 15 0 8 -4 15 -10 15 -5 0
-10 -7 -10 -15z"/>
<path d="M3716 4383 c-4 -9 -1 -23 7 -30 12 -12 16 -12 27 1 10 13 10 19 0 31
-16 19 -26 19 -34 -2z"/>
<path d="M3622 4373 c2 -10 10 -18 18 -18 8 0 16 8 18 18 2 12 -3 17 -18 17
-15 0 -20 -5 -18 -17z"/>
<path d="M4336 4375 c-4 -10 1 -15 16 -15 17 0 18 2 8 15 -7 8 -14 15 -15 15
-2 0 -5 -7 -9 -15z"/>
<path d="M4445 4280 c-3 -5 -1 -10 4 -10 6 0 11 5 11 10 0 6 -2 10 -4 10 -3 0
-8 -4 -11 -10z"/>
<path d="M3052 4348 c-18 -18 -14 -28 12 -28 17 0 23 5 22 17 -3 22 -18 27
-34 11z"/>
<path d="M3133 4308 c2 -7 10 -13 17 -13 7 0 15 6 18 13 2 7 -5 12 -18 12 -13
0 -20 -5 -17 -12z"/>
<path d="M3205 4280 c-3 -5 1 -10 9 -10 9 0 16 5 16 10 0 6 -4 10 -9 10 -6 0
-13 -4 -16 -10z"/>
<path d="M3202 4198 c6 -18 28 -21 28 -4 0 9 -7 16 -16 16 -9 0 -14 -5 -12
-12z"/>
<path d="M3106 4143 c-9 -18 -21 -33 -27 -33 -6 0 -8 -4 -5 -8 6 -10 42 -9 52
1 4 4 2 13 -5 21 -9 11 -9 15 0 18 7 2 10 11 7 19 -3 9 -10 3 -22 -18z"/>
<path d="M3721 4104 c0 -11 3 -14 6 -6 3 7 2 16 -1 19 -3 4 -6 -2 -5 -13z"/>
<path d="M3755 4080 c-8 -14 3 -30 21 -30 8 0 14 9 14 20 0 21 -24 28 -35 10z"/>
<path d="M3350 4069 c0 -5 5 -7 10 -4 6 3 10 8 10 11 0 2 -4 4 -10 4 -5 0 -10
-5 -10 -11z"/>
<path d="M3876 4065 c-3 -8 -12 -15 -21 -15 -8 0 -15 -7 -15 -15 0 -8 7 -15
15 -15 8 0 15 7 15 15 0 8 7 15 15 15 8 0 15 7 15 15 0 8 -4 15 -9 15 -5 0
-11 -7 -15 -15z"/>
<path d="M3443 4040 c-4 -16 -11 -20 -28 -16 -15 4 -31 -1 -46 -14 l-24 -20
35 -30 c27 -24 36 -27 38 -15 2 8 8 15 13 15 5 0 9 12 9 27 0 25 0 26 20 8 11
-10 20 -22 20 -27 0 -5 19 -29 42 -54 32 -34 44 -41 55 -33 7 6 13 17 13 24 0
6 9 20 20 30 24 22 25 42 3 67 -15 17 -15 18 0 18 10 0 17 5 17 11 0 6 -9 8
-20 4 -12 -4 -26 -2 -33 3 -7 5 -38 13 -70 17 -54 6 -59 5 -64 -15z"/>
<path d="M3760 4005 c0 -8 7 -15 15 -15 8 0 15 7 15 15 0 8 -7 15 -15 15 -8 0
-15 -7 -15 -15z"/>
<path d="M4047 4003 c-24 -23 18 -59 54 -48 21 7 21 7 -2 31 -23 24 -40 30
-52 17z"/>
<path d="M4371 3974 c0 -11 3 -14 6 -6 3 7 2 16 -1 19 -3 4 -6 -2 -5 -13z"/>
<path d="M3672 3965 c-11 -12 -10 -15 3 -15 8 0 15 7 15 15 0 18 -2 18 -18 0z"/>
<path d="M3795 3971 c-5 -9 32 -71 43 -71 2 0 10 7 18 15 9 8 12 15 7 15 -5 0
-13 10 -18 22 -11 25 -39 35 -50 19z"/>
<path d="M4179 3942 c-16 -19 -10 -32 24 -45 24 -9 22 -37 -3 -37 -13 0 -20
-7 -20 -19 0 -11 -4 -23 -10 -26 -5 -3 -10 -26 -10 -51 0 -30 -5 -46 -15 -50
-26 -11 6 -44 42 -44 18 0 33 -4 33 -10 0 -5 14 -10 30 -10 17 0 30 5 30 10 0
6 11 10 24 10 13 0 29 7 36 15 16 20 8 102 -12 118 -20 16 -13 97 8 97 16 0
16 5 8 38 -8 28 -61 32 -70 5 -3 -10 -8 -24 -10 -31 -3 -10 -13 -4 -31 17 -32
36 -34 37 -54 13z"/>
<path d="M3997 3893 c-8 -7 -10 -93 -2 -93 3 0 14 8 24 18 43 39 48 41 60 29
6 -6 11 -7 11 -1 -1 9 -65 54 -79 54 -4 0 -11 -3 -14 -7z"/>
<path d="M3365 3851 c-7 -12 12 -24 25 -16 11 7 4 25 -10 25 -5 0 -11 -4 -15
-9z"/>
<path d="M4130 3850 c0 -5 5 -10 10 -10 6 0 10 5 10 10 0 6 -4 10 -10 10 -5 0
-10 -4 -10 -10z"/>
<path d="M4555 3809 c-5 -14 0 -28 16 -45 l23 -24 23 22 23 22 -22 23 c-27 29
-55 30 -63 2z"/>
<path d="M3680 3780 c22 -32 40 -32 40 -1 0 11 -10 21 -22 25 -38 10 -40 7
-18 -24z"/>
<path d="M4010 3742 c0 -12 23 -32 37 -32 7 0 13 9 13 20 0 15 -7 20 -25 20
-14 0 -25 -4 -25 -8z"/>
<path d="M3923 3685 c-10 -10 -9 -16 1 -24 16 -13 42 11 31 29 -8 13 -17 12
-32 -5z"/>
<path d="M5090 3630 c0 -5 5 -10 11 -10 5 0 7 5 4 10 -3 6 -8 10 -11 10 -2 0
-4 -4 -4 -10z"/>
<path d="M4800 3600 c0 -5 4 -10 9 -10 6 0 13 5 16 10 3 6 -1 10 -9 10 -9 0
-16 -4 -16 -10z"/>
<path d="M3942 2778 c6 -18 28 -21 28 -4 0 9 -7 16 -16 16 -9 0 -14 -5 -12
-12z"/>
<path d="M3680 2695 c-8 -9 -8 -15 -2 -15 12 0 26 19 19 26 -2 2 -10 -2 -17
-11z"/>
<path d="M3916 2643 c-11 -11 -6 -23 9 -23 8 0 15 4 15 9 0 13 -16 22 -24 14z"/>
<path d="M3375 2620 c-4 -7 -3 -16 3 -22 14 -14 45 -2 40 15 -6 16 -34 21 -43
7z"/>
<path d="M3350 2495 c0 -8 7 -15 15 -15 8 0 15 7 15 15 0 8 -7 15 -15 15 -8 0
-15 -7 -15 -15z"/>
<path d="M3630 2471 c0 -5 6 -14 14 -20 16 -13 32 2 21 19 -8 12 -35 13 -35 1z"/>
<path d="M2540 2400 c0 -5 4 -10 9 -10 6 0 13 5 16 10 3 6 -1 10 -9 10 -9 0
-16 -4 -16 -10z"/>
<path d="M2799 2383 c-19 -22 -24 -39 -24 -78 0 -29 6 -56 14 -65 31 -33 101
-54 101 -30 0 6 7 10 14 10 19 0 61 57 70 94 6 24 2 35 -25 62 -28 29 -40 34
-79 34 -38 0 -51 -5 -71 -27z"/>
<path d="M3365 2311 c-3 -5 -1 -12 5 -16 5 -3 10 1 10 9 0 18 -6 21 -15 7z"/>
<path d="M4590 2201 c0 -28 14 -41 46 -41 8 0 14 7 14 15 0 8 -4 15 -9 15 -5
0 -11 9 -14 20 -8 32 -37 25 -37 -9z"/>
<path d="M4464 2016 c-8 -22 2 -46 21 -46 19 0 20 34 0 50 -12 10 -16 9 -21
-4z"/>
<path d="M1670 2233 c0 -16 6 -38 14 -49 13 -17 16 -18 31 -3 9 8 17 29 18 45
2 26 -1 29 -30 32 -30 3 -33 1 -33 -25z"/>
<path d="M1712 2138 c5 -32 28 -35 28 -4 0 17 -5 26 -16 26 -10 0 -14 -7 -12
-22z"/>
<path d="M15286 6203 c-3 -10 -10 -25 -15 -33 -5 -8 -16 -30 -23 -47 -7 -18
-16 -33 -20 -33 -5 0 -8 -13 -8 -28 0 -15 -4 -32 -10 -38 -5 -5 -12 -68 -15
-139 -4 -72 -10 -139 -15 -150 -5 -11 -14 -35 -22 -52 -7 -18 -16 -33 -20 -33
-5 0 -8 -6 -8 -14 0 -8 -16 -31 -35 -52 -19 -20 -35 -40 -35 -45 0 -4 -16 -21
-35 -36 -19 -15 -35 -33 -35 -40 0 -6 -8 -18 -18 -25 -10 -7 -27 -32 -38 -55
-10 -23 -22 -43 -25 -43 -3 0 -11 12 -18 28 -8 15 -17 35 -22 44 -14 27 -11
178 3 178 6 0 9 3 5 6 -8 9 -66 -38 -66 -53 -1 -7 -10 -18 -21 -25 -11 -7 -20
-23 -20 -35 0 -13 -3 -23 -8 -23 -23 0 -54 -178 -37 -217 4 -10 7 -35 6 -55
-2 -22 2 -38 8 -38 6 0 11 -11 11 -25 0 -14 5 -25 10 -25 6 0 10 -27 10 -61 0
-51 -4 -64 -22 -80 -13 -10 -27 -18 -33 -18 -19 -1 -85 69 -85 89 0 11 -4 20
-10 20 -5 0 -10 18 -10 40 0 22 -4 40 -10 40 -5 0 -10 -7 -10 -15 0 -8 -4 -23
-9 -33 -34 -68 -36 -78 -36 -242 0 -107 4 -176 12 -191 6 -13 17 -39 25 -56 7
-18 16 -33 20 -33 5 0 8 -6 8 -14 0 -8 7 -16 15 -20 8 -3 15 -11 15 -19 0 -7
26 -35 57 -62 88 -77 107 -89 203 -135 36 -17 72 -35 80 -39 9 -5 36 -12 60
-16 25 -4 51 -12 58 -18 19 -15 374 -16 393 0 8 6 25 13 39 15 39 5 31 32 -10
36 -19 2 -39 8 -45 13 -5 5 -17 9 -27 9 -10 0 -26 4 -36 10 -9 5 -39 19 -67
30 -89 38 -100 44 -167 100 -41 34 -69 65 -73 83 -4 15 -10 27 -15 27 -4 0
-10 8 -13 18 -3 9 -13 31 -23 47 -31 55 -34 64 -34 118 0 29 -5 58 -11 64 -8
8 -8 13 0 17 6 4 11 37 11 77 0 39 4 69 10 69 6 0 10 11 10 25 0 14 4 33 9 43
5 9 14 31 21 47 21 51 45 100 50 105 3 3 12 18 20 34 8 16 30 45 47 64 18 20
33 41 33 47 0 6 9 17 20 25 11 8 20 20 20 27 0 7 5 13 10 13 6 0 10 5 10 11 0
6 11 25 25 43 14 18 25 38 25 44 0 7 5 12 10 12 6 0 10 11 10 24 0 13 6 26 13
29 9 3 12 42 12 152 0 110 -3 149 -12 153 -7 2 -13 15 -13 28 0 13 -4 24 -10
24 -5 0 -10 13 -10 29 0 17 -4 33 -10 36 -5 3 -10 33 -10 65 0 38 -4 60 -12
63 -10 4 -10 7 0 18 6 7 12 30 12 51 0 39 -13 51 -24 21z"/>
<path d="M2467 5933 c-4 -3 2 -17 14 -29 19 -21 22 -21 38 -6 12 12 15 21 8
30 -10 13 -49 17 -60 5z"/>
<path d="M7815 5783 c-16 -2 -34 -9 -39 -14 -6 -5 -23 -9 -39 -9 -26 0 -62
-15 -182 -77 -38 -20 -125 -109 -125 -128 0 -8 -4 -15 -10 -15 -5 0 -10 -7
-10 -15 0 -8 -4 -15 -10 -15 -5 0 -10 -11 -10 -25 0 -14 -4 -25 -10 -25 -12 0
-14 -163 -2 -188 5 -9 17 -30 26 -47 10 -16 20 -38 23 -47 3 -10 9 -18 14 -18
5 0 9 -6 9 -13 0 -15 92 -97 108 -97 5 0 15 -7 22 -15 7 -8 21 -15 31 -15 11
0 19 -4 19 -10 0 -5 16 -12 35 -16 19 -3 35 -10 35 -15 0 -5 10 -9 23 -9 12 0
35 -7 51 -15 15 -8 36 -15 45 -15 9 0 38 -11 65 -25 27 -14 56 -25 64 -25 22
0 83 -31 125 -63 31 -24 37 -35 37 -66 0 -30 -7 -44 -32 -67 l-33 -29 -141 0
c-89 0 -150 4 -165 12 -13 7 -44 21 -69 33 -25 11 -63 32 -85 45 -22 13 -46
24 -54 25 -14 0 -171 -156 -171 -171 0 -5 -9 -14 -20 -21 -11 -7 -20 -18 -20
-23 0 -11 83 -85 95 -85 8 0 89 -35 138 -60 20 -11 44 -17 51 -14 8 3 17 1 21
-5 3 -6 16 -11 29 -11 12 0 28 -6 34 -12 10 -10 66 -13 212 -13 146 0 202 3
211 13 7 6 23 12 35 12 13 0 25 4 29 10 3 5 12 7 19 4 8 -3 17 -1 21 5 3 6 15
11 26 11 10 0 19 4 19 9 0 5 12 13 28 19 35 12 172 144 172 166 0 9 5 16 11
16 5 0 8 4 4 9 -3 5 -1 12 5 16 5 3 10 19 10 36 0 16 5 29 10 29 6 0 10 30 10
69 0 39 -4 73 -10 76 -5 3 -10 17 -10 30 0 13 -5 27 -10 30 -6 4 -10 12 -9 18
4 23 -19 64 -45 80 -14 10 -26 24 -26 32 0 7 -10 17 -22 21 -12 3 -31 15 -42
26 -12 11 -41 29 -66 39 -25 11 -59 27 -77 35 -17 8 -40 14 -51 14 -12 0 -24
5 -27 10 -3 6 -17 10 -30 10 -13 0 -27 5 -30 10 -4 6 -10 8 -15 5 -5 -3 -11
-1 -15 5 -3 5 -14 10 -24 10 -10 0 -32 7 -47 15 -16 8 -39 15 -51 15 -13 0
-23 5 -23 10 0 6 -9 10 -19 10 -11 0 -23 5 -26 11 -4 5 -18 14 -31 19 -14 6
-27 18 -30 27 -3 10 -10 26 -15 36 -6 11 -6 17 1 17 5 0 10 8 10 18 0 10 12
29 26 43 24 23 32 24 158 24 83 0 142 -4 157 -12 13 -7 45 -21 71 -32 26 -12
50 -25 53 -31 12 -19 40 -10 78 25 20 20 37 39 37 44 0 5 16 23 35 40 19 17
35 35 35 41 0 5 9 15 20 22 11 7 20 16 20 21 0 13 -53 57 -82 68 -16 6 -28 15
-28 20 0 5 -8 9 -17 9 -10 0 -40 11 -68 25 -27 14 -67 28 -90 32 -22 3 -43 10
-46 15 -6 10 -266 19 -314 11z"/>
<path d="M12570 5661 c0 -28 -4 -53 -10 -56 -5 -3 -10 -32 -10 -63 -1 -65 -16
-92 -53 -92 -14 0 -29 -4 -32 -10 -3 -5 -31 -10 -61 -10 l-54 0 0 -125 0 -124
83 -3 82 -3 5 -282 c4 -207 8 -285 18 -295 6 -6 12 -20 12 -30 0 -10 5 -18 10
-18 6 0 10 -5 10 -11 0 -6 19 -33 41 -60 38 -46 108 -89 143 -89 8 0 16 -6 19
-12 3 -10 50 -13 190 -13 135 0 189 3 199 13 6 6 22 12 35 12 19 0 23 5 23 30
0 17 -4 30 -10 30 -5 0 -10 13 -10 29 0 17 -4 33 -10 36 -5 3 -10 21 -10 39 0
18 -3 36 -7 40 -4 4 -8 15 -8 24 0 15 -11 17 -85 14 -94 -4 -139 8 -147 38 -3
11 -9 20 -14 20 -5 0 -9 11 -9 25 0 14 -4 25 -10 25 -6 0 -10 75 -10 206 0
185 2 208 18 220 12 9 54 13 145 14 l127 0 0 135 0 135 -145 0 -145 0 0 130 0
130 -160 0 -160 0 0 -49z"/>
<path d="M15477 5663 c-3 -4 -8 -36 -12 -71 -4 -34 -11 -65 -16 -68 -5 -3 -9
-14 -9 -25 0 -10 -4 -19 -10 -19 -5 0 -10 -11 -10 -25 0 -14 -3 -25 -8 -25 -4
0 -13 -15 -20 -32 -30 -73 -47 -108 -54 -108 -5 0 -8 -5 -8 -12 0 -6 -11 -26
-25 -44 -14 -18 -25 -37 -25 -43 0 -6 -4 -11 -9 -11 -5 0 -11 -8 -14 -17 -7
-21 -39 -76 -49 -83 -4 -3 -10 -25 -14 -48 -4 -23 -10 -42 -15 -42 -5 0 -9
-25 -9 -55 0 -30 -4 -55 -10 -55 -5 0 -10 -11 -10 -25 0 -14 5 -25 10 -25 6 0
10 -20 10 -44 0 -25 5 -48 10 -51 6 -3 10 -18 10 -32 0 -29 27 -82 53 -101 9
-7 17 -20 17 -28 0 -8 3 -14 8 -14 4 0 26 -18 49 -40 23 -22 55 -43 72 -46 17
-4 31 -10 31 -15 0 -4 20 -11 45 -15 25 -3 45 -10 45 -15 0 -12 117 -11 125 1
3 6 20 10 37 10 58 0 178 74 178 110 0 10 5 22 10 25 6 4 10 63 10 146 0 86 4
139 10 139 6 0 10 23 10 50 0 28 5 50 10 50 6 0 10 9 10 19 0 11 5 23 10 26 6
4 10 12 9 18 -4 21 14 51 43 76 15 13 28 28 28 33 0 11 68 71 91 80 11 4 19
12 19 18 0 13 -37 13 -45 0 -4 -6 -10 -8 -14 -5 -5 2 -16 -4 -26 -15 -10 -11
-23 -20 -28 -20 -16 0 -179 -139 -163 -140 5 0 -1 -8 -12 -19 -12 -10 -22 -23
-22 -30 0 -6 -3 -11 -8 -11 -4 0 -13 -13 -20 -30 -8 -16 -18 -30 -23 -30 -12
0 -12 47 1 55 14 9 13 252 -1 261 -6 3 -8 17 -5 30 4 13 3 24 -1 24 -8 0 -33
48 -33 63 0 14 -40 67 -51 67 -6 0 -9 -30 -8 -75 1 -41 -1 -78 -4 -82 -4 -3
-7 -13 -7 -21 0 -18 -38 -72 -51 -72 -5 0 -9 20 -9 45 0 25 5 45 10 45 6 0 10
13 10 29 0 17 -4 33 -10 36 -5 3 -10 33 -10 65 0 32 -4 61 -9 64 -4 3 -11 28
-15 56 -4 27 -11 50 -15 50 -5 0 -11 8 -15 18 -10 32 -44 83 -49 75z"/>
<path d="M9290 5452 c-42 -12 -130 -55 -130 -64 0 -4 -8 -8 -19 -8 -10 0 -24
-7 -31 -15 -19 -23 -40 -18 -40 10 0 14 -4 25 -10 25 -5 0 -10 11 -10 25 l0
25 -148 0 c-102 0 -152 -4 -160 -12 -17 -17 -17 -1419 0 -1436 8 -8 64 -12
184 -12 140 0 174 3 184 15 9 11 11 69 9 228 -4 210 -4 214 16 209 11 -3 28
-14 39 -24 11 -10 25 -18 30 -18 6 0 25 -8 41 -17 46 -27 245 -25 300 2 22 10
43 19 47 20 3 0 10 3 14 8 4 4 15 7 25 7 9 0 19 3 21 8 2 4 29 29 61 57 31 27
57 54 57 60 0 6 9 17 20 25 11 8 20 20 20 27 0 7 3 13 8 13 12 0 32 52 39 98
3 23 10 42 14 42 5 0 9 20 9 44 0 25 5 48 10 51 6 3 10 39 10 80 0 41 -4 77
-10 80 -5 3 -10 28 -10 55 0 27 -4 51 -9 54 -4 3 -11 20 -15 38 -8 42 -29 88
-38 88 -5 0 -8 6 -8 13 0 17 -78 111 -100 119 -10 4 -21 11 -24 17 -8 12 -65
41 -82 41 -7 0 -14 5 -16 12 -5 14 -255 22 -298 10z m138 -311 c23 -19 42 -41
42 -48 0 -7 4 -13 9 -13 6 0 7 -15 4 -34 -3 -19 -1 -36 6 -40 14 -9 15 -153 0
-161 -6 -4 -9 -19 -8 -33 5 -53 -65 -152 -107 -152 -8 0 -14 -4 -14 -10 0 -6
-30 -10 -69 -10 -39 0 -73 5 -76 10 -3 6 -16 10 -28 10 -12 1 -32 9 -44 19
-22 19 -23 24 -23 224 l0 206 29 20 c16 12 32 21 36 21 4 0 21 6 38 14 74 34
146 26 205 -23z"/>
<path d="M10495 5453 c-11 -3 -24 -9 -29 -14 -6 -5 -17 -9 -25 -9 -21 0 -91
-32 -91 -42 0 -4 -8 -8 -18 -8 -11 0 -27 -9 -37 -20 -10 -11 -24 -20 -32 -20
-7 0 -16 -6 -19 -13 -2 -7 -29 -40 -59 -72 -30 -32 -57 -68 -60 -79 -7 -23
-22 -61 -36 -88 -5 -10 -9 -29 -9 -43 0 -14 -4 -25 -10 -25 -6 0 -10 -43 -10
-110 0 -67 4 -110 10 -110 6 0 10 -11 10 -25 0 -14 4 -33 9 -43 5 -9 17 -35
27 -57 11 -22 22 -42 25 -45 3 -3 12 -18 19 -35 17 -40 146 -149 200 -171 8
-3 27 -12 42 -20 14 -8 37 -14 51 -14 14 0 27 -6 29 -12 4 -10 47 -13 171 -13
119 0 169 4 178 13 7 6 23 12 34 12 12 0 25 3 29 8 4 4 11 7 14 8 48 6 232
142 232 172 0 6 4 12 8 12 5 0 14 16 22 35 8 19 17 35 22 35 4 0 8 7 8 15 0 8
5 15 10 15 6 0 10 11 10 25 0 14 4 25 9 25 6 0 7 15 4 34 -3 19 -1 36 6 40 15
9 15 182 0 192 -6 3 -9 20 -7 36 3 16 1 31 -4 34 -4 3 -8 16 -8 30 0 13 -4 24
-10 24 -5 0 -10 7 -10 15 0 8 -4 15 -10 15 -5 0 -10 10 -10 23 0 12 -9 28 -20
35 -12 7 -19 16 -16 21 3 4 -7 18 -22 31 -15 13 -47 41 -72 63 -25 21 -54 43
-65 48 -11 5 -33 18 -50 28 -16 11 -39 20 -50 20 -12 1 -27 7 -33 14 -13 12
-315 22 -357 10z m275 -302 c19 -15 39 -37 45 -49 5 -12 13 -22 17 -22 5 0 8
-13 8 -29 0 -17 5 -33 10 -36 6 -3 10 -52 10 -111 0 -63 -4 -104 -10 -104 -5
0 -10 -9 -10 -19 0 -11 -4 -23 -10 -26 -5 -3 -10 -14 -10 -24 0 -27 -74 -91
-105 -91 -15 0 -35 -5 -45 -10 -13 -7 -21 -7 -25 0 -3 5 -20 10 -36 10 -31 0
-123 66 -113 81 2 4 0 10 -6 14 -5 3 -10 19 -10 36 0 16 -4 29 -10 29 -6 0
-10 43 -10 110 0 67 4 110 10 110 6 0 10 13 10 29 0 17 5 33 10 36 6 4 8 10 5
14 -8 14 78 76 115 82 60 11 122 -1 160 -30z"/>
<path d="M12053 5453 c-13 -2 -23 -9 -23 -14 0 -5 -8 -9 -18 -9 -10 0 -29 -11
-42 -25 -13 -14 -29 -25 -35 -25 -7 0 -32 -25 -56 -55 -24 -30 -48 -54 -54
-52 -5 2 -11 31 -13 65 -2 34 -7 62 -12 62 -6 0 -10 11 -10 25 l0 25 -150 0
-150 0 0 -530 0 -530 190 0 189 0 3 316 c3 314 3 316 26 334 12 10 22 23 22
28 0 13 56 54 103 76 30 14 59 17 135 15 l97 -3 3 27 c2 15 8 27 13 27 5 0 9
18 9 40 0 22 5 40 10 40 6 0 10 18 10 40 0 22 5 40 10 40 14 0 12 64 -2 78
-12 12 -202 15 -255 5z"/>
<path d="M13670 5453 c-14 -2 -29 -9 -34 -14 -6 -5 -19 -9 -30 -10 -12 0 -34
-9 -51 -20 -16 -10 -37 -22 -45 -26 -44 -19 -89 -73 -106 -125 -4 -10 -10 -18
-15 -18 -5 0 -9 -11 -9 -25 0 -14 -4 -25 -10 -25 -6 0 -10 -27 -10 -60 0 -33
4 -60 10 -60 6 0 10 -11 10 -25 0 -14 5 -25 10 -25 6 0 10 -7 10 -15 0 -8 9
-20 20 -27 11 -7 20 -18 20 -24 0 -14 33 -44 49 -44 6 0 24 -11 39 -25 15 -14
31 -25 37 -25 5 0 32 -11 59 -25 27 -13 52 -22 57 -20 4 3 24 -4 44 -15 19
-11 43 -20 51 -20 25 0 86 -31 117 -58 42 -39 35 -63 -30 -99 -26 -15 -149
-18 -157 -4 -3 5 -27 12 -52 16 -25 3 -60 15 -78 26 -17 10 -38 22 -46 25 -8
4 -23 14 -32 22 -16 14 -20 13 -38 -3 -11 -10 -20 -23 -20 -29 0 -6 -9 -17
-20 -24 -11 -7 -20 -17 -20 -23 0 -6 -11 -20 -25 -31 -14 -11 -25 -25 -25 -31
0 -7 -9 -18 -20 -25 -11 -7 -20 -17 -20 -23 0 -14 24 -37 52 -49 13 -6 37 -19
53 -29 17 -11 40 -20 52 -20 12 -1 25 -6 28 -11 4 -6 10 -8 15 -5 5 3 11 1 15
-5 3 -5 17 -10 30 -10 13 0 25 -6 27 -12 4 -10 51 -13 191 -13 135 0 189 3
198 13 7 6 23 12 34 12 12 0 25 3 29 8 4 4 11 7 14 7 34 2 162 89 162 109 0 7
9 18 20 26 11 8 20 22 20 30 0 9 6 22 12 28 8 8 13 45 13 105 0 80 -4 97 -23
124 -12 17 -22 34 -22 37 0 9 -67 68 -94 83 -11 7 -43 22 -71 33 -27 12 -67
29 -87 40 -21 10 -58 22 -83 25 -25 4 -45 11 -45 15 0 4 -16 11 -35 14 -19 4
-35 11 -35 16 0 6 -8 10 -17 10 -20 0 -50 53 -33 58 5 2 10 9 10 15 0 7 12 18
27 25 32 14 149 16 158 2 3 -5 15 -10 26 -10 24 0 105 -36 114 -50 9 -14 55
-12 55 3 0 6 14 23 30 36 17 13 30 29 30 36 0 7 11 20 25 29 14 9 25 21 25 27
0 6 10 19 23 29 l22 19 -27 25 c-15 15 -34 26 -41 26 -8 0 -20 6 -26 14 -7 8
-26 18 -42 21 -16 4 -31 11 -34 16 -4 5 -16 9 -29 9 -12 0 -28 6 -34 13 -13
12 -318 21 -372 10z"/>
<path d="M1624 5355 c-15 -23 -15 -27 0 -50 21 -32 75 -35 83 -5 3 11 10 20
16 20 6 0 0 11 -13 25 -12 13 -27 22 -31 19 -5 -3 -9 0 -9 5 0 20 -30 11 -46
-14z"/>
<path d="M1525 5330 c-3 -5 1 -10 9 -10 9 0 16 5 16 10 0 6 -4 10 -9 10 -6 0
-13 -4 -16 -10z"/>
<path d="M1460 5274 c0 -8 5 -12 10 -9 6 3 10 10 10 16 0 5 -4 9 -10 9 -5 0
-10 -7 -10 -16z"/>
<path d="M1301 5114 c0 -11 3 -14 6 -6 3 7 2 16 -1 19 -3 4 -6 -2 -5 -13z"/>
<path d="M1520 5020 c0 -5 5 -10 11 -10 5 0 7 5 4 10 -3 6 -8 10 -11 10 -2 0
-4 -4 -4 -10z"/>
<path d="M1310 5010 c0 -5 5 -10 10 -10 6 0 10 5 10 10 0 6 -4 10 -10 10 -5 0
-10 -4 -10 -10z"/>
<path d="M6020 4966 c0 -15 37 -32 47 -22 9 8 -17 36 -33 36 -8 0 -14 -6 -14
-14z"/>
<path d="M6200 4786 c0 -21 18 -30 34 -17 7 6 16 8 19 4 4 -3 7 -2 7 4 0 6
-10 13 -22 17 -33 9 -38 8 -38 -8z"/>
<path d="M6088 4633 c7 -3 16 -2 19 1 4 3 -2 6 -13 5 -11 0 -14 -3 -6 -6z"/>
<path d="M1158 4573 c7 -3 16 -2 19 1 4 3 -2 6 -13 5 -11 0 -14 -3 -6 -6z"/>
<path d="M6180 4541 c0 -19 22 -23 38 -7 15 15 14 16 -11 16 -15 0 -27 -4 -27
-9z"/>
<path d="M1255 4440 c3 -5 8 -10 11 -10 2 0 4 5 4 10 0 6 -5 10 -11 10 -5 0
-7 -4 -4 -10z"/>
<path d="M5631 4421 c-8 -5 -9 -11 -3 -15 13 -8 42 3 42 15 0 11 -21 11 -39 0z"/>
<path d="M1150 4409 c0 -5 5 -7 10 -4 6 3 10 8 10 11 0 2 -4 4 -10 4 -5 0 -10
-5 -10 -11z"/>
<path d="M1088 4393 c7 -3 16 -2 19 1 4 3 -2 6 -13 5 -11 0 -14 -3 -6 -6z"/>
<path d="M905 4380 c3 -5 10 -10 16 -10 5 0 9 5 9 10 0 6 -7 10 -16 10 -8 0
-12 -4 -9 -10z"/>
<path d="M1140 4310 c0 -5 7 -10 16 -10 8 0 12 5 9 10 -3 6 -10 10 -16 10 -5
0 -9 -4 -9 -10z"/>
<path d="M5710 4285 c0 -8 4 -15 9 -15 5 0 11 7 15 15 3 9 0 15 -9 15 -8 0
-15 -7 -15 -15z"/>
<path d="M6010 4220 c0 -5 7 -10 16 -10 8 0 12 5 9 10 -3 6 -10 10 -16 10 -5
0 -9 -4 -9 -10z"/>
<path d="M780 4129 c0 -5 5 -7 10 -4 6 3 10 8 10 11 0 2 -4 4 -10 4 -5 0 -10
-5 -10 -11z"/>
<path d="M1065 4100 c3 -5 8 -10 11 -10 2 0 4 5 4 10 0 6 -5 10 -11 10 -5 0
-7 -4 -4 -10z"/>
<path d="M945 4040 c3 -5 8 -10 11 -10 2 0 4 5 4 10 0 6 -5 10 -11 10 -5 0 -7
-4 -4 -10z"/>
<path d="M5342 4000 c-4 -3 -13 -13 -20 -22 -21 -26 12 -58 61 -58 43 0 55 17
41 59 -8 21 -16 26 -42 26 -18 1 -36 -2 -40 -5z"/>
<path d="M5862 3913 c4 -21 27 -27 48 -13 13 9 13 11 0 20 -25 16 -52 12 -48
-7z"/>
<path d="M960 3910 c0 -5 7 -10 15 -10 8 0 15 5 15 10 0 6 -7 10 -15 10 -8 0
-15 -4 -15 -10z"/>
<path d="M5240 3881 c0 -15 6 -21 21 -21 14 0 19 5 17 17 -5 26 -38 29 -38 4z"/>
<path d="M1340 3570 c0 -5 5 -10 10 -10 6 0 10 5 10 10 0 6 -4 10 -10 10 -5 0
-10 -4 -10 -10z"/>
<path d="M1400 3509 c0 -5 5 -7 10 -4 6 3 10 8 10 11 0 2 -4 4 -10 4 -5 0 -10
-5 -10 -11z"/>
<path d="M6640 3415 c0 -8 7 -15 15 -15 9 0 12 6 9 15 -4 8 -10 15 -15 15 -5
0 -9 -7 -9 -15z"/>
<path d="M1225 3360 c3 -5 8 -10 11 -10 2 0 4 5 4 10 0 6 -5 10 -11 10 -5 0
-7 -4 -4 -10z"/>
<path d="M12065 3341 c-3 -5 -19 -12 -35 -16 -30 -7 -90 -68 -90 -92 0 -7 -4
-13 -10 -13 -5 0 -10 -18 -10 -40 0 -22 5 -40 10 -40 6 0 10 -6 10 -13 0 -25
25 -67 45 -73 10 -4 25 -13 33 -20 7 -8 24 -14 38 -14 13 0 24 -4 24 -10 0 -6
28 -10 65 -10 37 0 65 4 65 10 0 6 11 10 24 10 14 0 43 17 70 41 l46 41 0 73
c0 52 -4 76 -15 85 -8 7 -15 19 -15 26 0 8 -7 14 -16 14 -8 0 -22 7 -30 15 -9
8 -26 15 -40 15 -13 0 -24 5 -24 10 0 13 -137 13 -145 1z"/>
<path d="M15204 3281 c-9 -10 -4 -1241 6 -1241 6 0 10 -13 10 -29 0 -17 5 -33
10 -36 6 -3 10 -15 10 -26 0 -28 89 -113 145 -139 42 -19 61 -21 185 -18 119
3 141 6 159 22 15 13 18 23 11 30 -5 5 -10 29 -10 52 0 24 -4 46 -10 49 -5 3
-10 26 -10 50 0 44 -10 55 -51 55 -10 0 -19 5 -19 10 0 6 -8 10 -19 10 -10 0
-22 10 -27 23 -5 12 -11 284 -14 605 l-5 583 -183 2 c-101 1 -186 0 -188 -2z"/>
<path d="M2160 3205 c-16 -20 -5 -45 20 -45 16 0 20 7 20 30 0 33 -19 40 -40
15z"/>
<path d="M1322 3194 c-7 -8 -8 -14 -3 -14 10 0 25 19 20 25 -2 1 -10 -3 -17
-11z"/>
<path d="M7410 2495 l0 -695 190 0 190 0 0 260 0 260 270 0 270 0 0 150 0 150
-270 0 -270 0 0 145 0 145 315 0 315 0 0 140 0 140 -505 0 -505 0 0 -695z"/>
<path d="M1285 3170 c3 -5 8 -10 11 -10 2 0 4 5 4 10 0 6 -5 10 -11 10 -5 0
-7 -4 -4 -10z"/>
<path d="M11123 3133 c-8 -3 -13 -23 -13 -48 0 -24 -4 -47 -10 -50 -5 -3 -10
-33 -10 -65 0 -32 -4 -62 -10 -65 -5 -3 -10 -15 -10 -26 0 -17 -8 -19 -90 -19
l-90 0 0 -123 c0 -82 4 -127 12 -135 7 -7 40 -12 80 -12 l68 0 0 -250 c0 -160
4 -250 10 -250 6 0 10 -13 10 -29 0 -17 5 -33 10 -36 6 -3 10 -13 10 -22 0 -9
11 -31 25 -49 14 -18 25 -35 25 -38 0 -15 89 -86 115 -92 17 -4 33 -12 37 -18
5 -7 70 -11 205 -11 225 0 263 8 263 57 0 16 -4 28 -10 28 -5 0 -10 13 -10 29
0 17 -4 33 -10 36 -5 3 -10 21 -10 40 0 19 -4 37 -10 40 -5 3 -10 15 -10 26 0
20 -24 26 -35 9 -3 -5 -32 -10 -64 -10 -65 0 -121 23 -128 51 -3 11 -9 19 -14
19 -5 0 -9 9 -9 19 0 11 -4 23 -10 26 -6 4 -10 87 -10 216 l0 209 133 0 c90 0
137 4 145 12 8 8 12 53 12 135 l0 123 -133 0 c-90 0 -137 4 -145 12 -8 8 -12
54 -12 140 l0 128 -147 -1 c-82 0 -154 -3 -160 -6z"/>
<path d="M3164 3000 c-29 -30 -58 -39 -69 -20 -12 19 -44 10 -70 -22 -26 -30
-27 -36 -20 -100 5 -56 3 -69 -9 -74 -8 -3 -18 -19 -21 -35 -4 -16 -11 -29
-17 -29 -6 0 -8 -3 -4 -7 3 -4 30 16 59 45 28 28 63 56 77 61 73 31 104 66
103 115 -2 38 -1 38 13 18 8 -12 24 -22 35 -22 18 0 20 4 14 32 -7 28 -35 71
-35 52 0 -3 -6 -1 -14 5 -11 9 -20 5 -42 -19z"/>
<path d="M2170 2991 c0 -11 -5 -23 -11 -27 -6 -4 -8 -20 -5 -39 4 -19 2 -36
-4 -40 -5 -3 -10 -42 -10 -86 0 -62 3 -79 14 -79 10 0 17 15 20 43 9 69 12
247 4 247 -5 0 -8 -9 -8 -19z"/>
<path d="M1450 2954 c0 -9 5 -14 12 -12 18 6 21 28 4 28 -9 0 -16 -7 -16 -16z"/>
<path d="M6798 2903 c7 -3 16 -2 19 1 4 3 -2 6 -13 5 -11 0 -14 -3 -6 -6z"/>
<path d="M9064 2879 c-3 -6 -17 -9 -30 -6 -14 2 -27 0 -30 -4 -3 -5 -16 -9
-29 -9 -13 0 -26 -4 -29 -9 -3 -5 -18 -12 -33 -16 -16 -3 -42 -17 -60 -31 -17
-13 -35 -24 -40 -24 -8 0 -123 -120 -123 -128 0 -2 -9 -17 -21 -33 -11 -16
-17 -29 -14 -29 3 0 -3 -13 -14 -29 -12 -16 -21 -41 -21 -55 0 -14 -4 -26 -10
-26 -6 0 -10 -26 -10 -58 0 -32 -5 -63 -12 -70 -9 -9 -9 -15 0 -24 7 -7 12
-40 12 -80 0 -39 4 -68 10 -68 6 0 10 -11 10 -25 0 -14 5 -25 10 -25 6 0 10
-8 10 -18 0 -10 3 -22 8 -26 4 -4 7 -11 7 -16 0 -18 72 -104 124 -148 58 -50
94 -72 117 -72 8 0 14 -4 14 -9 0 -5 15 -13 33 -16 17 -4 35 -13 39 -19 10
-16 436 -16 446 0 4 6 26 15 50 19 23 4 42 11 42 16 0 5 8 9 18 9 9 0 26 7 36
15 11 8 28 15 38 15 25 0 24 47 -2 80 -11 14 -20 30 -20 36 0 16 -71 104 -84
104 -6 0 -24 -7 -40 -15 -15 -8 -36 -15 -45 -15 -9 0 -22 -5 -28 -11 -17 -17
-229 -17 -245 -1 -6 6 -20 12 -31 12 -22 0 -117 78 -117 97 0 7 -4 13 -10 13
-5 0 -10 11 -10 25 l0 25 334 0 c184 0 341 3 350 6 14 5 16 27 16 139 0 74 -4
136 -9 139 -5 3 -7 15 -4 26 5 20 -17 80 -29 80 -5 0 -8 10 -8 23 0 12 -9 28
-20 35 -11 7 -20 18 -20 26 0 8 -10 21 -22 29 -13 9 -43 34 -68 56 -25 22 -49
41 -53 41 -4 0 -29 10 -55 22 -26 12 -59 20 -74 19 -16 -1 -28 2 -28 8 0 15
-216 15 -226 0z m221 -269 c15 -6 29 -19 32 -30 3 -11 9 -20 14 -20 5 0 9 -7
9 -15 0 -8 5 -15 11 -15 6 0 9 -14 7 -32 l-3 -33 -189 -3 c-104 -1 -193 1
-198 6 -9 9 12 62 25 62 4 0 7 6 7 13 0 13 49 55 80 69 24 11 176 9 205 -2z"/>
<path d="M10234 2879 c-3 -6 -17 -9 -30 -6 -14 2 -27 0 -30 -4 -3 -5 -16 -9
-29 -9 -13 0 -26 -4 -29 -9 -3 -5 -18 -12 -33 -16 -36 -9 -138 -98 -155 -135
-7 -17 -16 -30 -20 -30 -5 0 -8 -13 -8 -29 0 -17 -4 -33 -10 -36 -5 -3 -10
-28 -10 -55 0 -27 5 -52 10 -55 6 -3 10 -15 10 -26 0 -10 5 -19 10 -19 6 0 10
-6 10 -14 0 -22 89 -115 116 -122 13 -3 24 -10 24 -15 0 -5 8 -9 18 -9 9 0 44
-14 77 -30 33 -16 70 -30 83 -30 12 0 22 -4 22 -9 0 -6 20 -13 45 -17 25 -3
45 -10 45 -15 0 -5 8 -9 18 -9 19 0 72 -49 72 -66 0 -6 -6 -22 -12 -37 -16
-34 -52 -41 -167 -34 -72 4 -95 10 -141 36 -30 17 -66 35 -80 41 -13 6 -28 16
-32 22 -7 13 -38 -7 -38 -24 0 -6 -11 -19 -25 -30 -14 -11 -25 -25 -25 -32 0
-6 -9 -18 -20 -26 -11 -8 -20 -18 -20 -23 0 -5 -11 -18 -25 -29 -14 -11 -25
-30 -25 -43 0 -16 7 -25 25 -29 14 -4 25 -11 25 -16 0 -6 8 -10 18 -10 9 0 44
-14 77 -30 33 -16 70 -30 82 -30 12 0 23 -6 26 -12 3 -10 56 -13 222 -13 166
0 219 3 223 13 2 6 10 12 18 12 34 0 103 42 161 98 56 53 63 64 69 111 4 28
11 54 15 57 12 7 12 91 0 98 -4 3 -11 24 -15 46 -4 24 -14 45 -26 52 -11 7
-20 18 -20 25 0 18 -67 64 -150 103 -25 11 -53 25 -62 30 -10 6 -27 10 -37 10
-11 0 -22 4 -25 9 -3 5 -15 7 -25 4 -10 -3 -22 0 -25 6 -4 6 -18 11 -32 11
-13 0 -24 4 -24 9 0 5 -14 11 -32 15 -18 3 -42 16 -55 28 -23 22 -31 58 -13
58 6 0 10 6 10 13 0 6 12 18 27 25 31 14 153 17 153 3 0 -5 20 -12 45 -15 25
-4 45 -11 45 -17 0 -5 8 -9 19 -9 10 0 24 -7 31 -15 15 -18 60 -20 60 -2 0 7
11 21 25 31 14 10 25 24 25 30 0 6 14 22 30 35 17 13 30 29 30 36 0 7 7 16 16
19 39 15 3 50 -96 96 -25 11 -53 25 -62 30 -10 6 -27 10 -37 10 -11 0 -22 4
-25 9 -3 4 -16 6 -30 4 -13 -3 -27 0 -30 6 -5 7 -51 11 -126 11 -75 0 -121 -4
-126 -11z"/>
<path d="M14295 2879 c-4 -6 -22 -9 -40 -7 -19 1 -37 -1 -41 -5 -4 -4 -18 -7
-30 -7 -13 0 -25 -4 -28 -9 -4 -5 -29 -12 -56 -16 -28 -4 -50 -10 -50 -15 0
-4 -16 -11 -35 -14 -19 -4 -35 -11 -35 -16 0 -6 -8 -10 -18 -10 -11 0 -27 -9
-36 -19 -17 -19 -17 -21 1 -53 10 -18 21 -34 26 -36 4 -2 7 -8 7 -14 0 -5 11
-24 25 -42 14 -18 25 -38 25 -44 0 -7 5 -12 10 -12 6 0 10 -7 10 -15 0 -21 23
-19 78 7 26 12 50 22 54 22 3 1 10 4 14 9 4 4 17 7 30 7 12 0 24 5 26 12 3 8
38 12 109 12 103 1 106 0 141 -29 20 -16 39 -37 42 -45 3 -8 9 -21 12 -27 4
-10 -7 -13 -40 -13 -24 0 -48 -4 -51 -10 -3 -5 -24 -10 -45 -10 -21 0 -41 -4
-44 -9 -3 -4 -36 -11 -72 -14 -37 -4 -70 -11 -73 -16 -3 -5 -25 -12 -49 -16
-24 -4 -56 -13 -70 -21 -15 -8 -32 -14 -37 -14 -6 0 -28 -16 -50 -35 -22 -20
-55 -47 -72 -62 -18 -14 -31 -29 -28 -33 3 -5 1 -11 -5 -15 -5 -3 -10 -15 -10
-26 0 -10 -4 -19 -10 -19 -6 0 -10 -37 -10 -90 0 -53 4 -90 10 -90 6 0 10 -8
10 -18 0 -10 3 -22 8 -26 4 -4 7 -11 7 -16 0 -16 70 -102 90 -111 11 -5 36
-19 55 -31 30 -19 54 -22 166 -26 104 -3 138 -1 165 11 19 9 54 25 79 36 25
10 54 29 64 40 27 29 66 28 66 -2 0 -13 6 -35 13 -50 l12 -27 150 2 150 3 3
369 c1 240 -1 373 -8 380 -5 5 -10 23 -10 38 0 15 -4 28 -10 28 -5 0 -10 11
-10 25 0 14 -4 25 -10 25 -5 0 -10 6 -10 14 0 8 -9 21 -20 29 -11 8 -18 16
-15 19 6 5 -98 98 -110 98 -3 0 -27 10 -53 22 -26 12 -59 20 -74 19 -14 -1
-29 2 -33 8 -9 15 -251 15 -260 0z m243 -678 c3 -82 3 -83 -87 -128 -69 -36
-201 -26 -201 15 0 6 -4 12 -10 12 -5 0 -10 10 -10 23 0 36 23 77 47 83 12 3
27 12 34 20 6 8 22 14 35 14 12 0 26 5 29 10 3 6 19 10 35 10 16 0 32 5 35 11
4 5 26 9 48 7 l42 -3 3 -74z"/>
<path d="M11960 2330 l0 -530 188 2 187 3 0 525 0 525 -187 3 -188 2 0 -530z"/>
<path d="M12517 2854 c-3 -3 -2 -14 2 -23 5 -9 13 -27 18 -41 6 -14 16 -38 23
-55 7 -16 17 -41 23 -55 5 -14 13 -32 17 -40 4 -9 11 -31 15 -50 7 -32 11 -41
35 -90 6 -11 10 -27 10 -35 0 -8 5 -15 10 -15 6 0 10 -11 10 -25 0 -14 4 -25
9 -25 5 0 12 -20 15 -45 4 -25 11 -45 17 -45 5 0 9 -11 9 -25 0 -14 5 -25 10
-25 6 0 10 -11 10 -25 0 -14 5 -25 10 -25 6 0 10 -9 10 -19 0 -11 4 -22 9 -25
5 -3 12 -22 16 -42 3 -20 10 -44 15 -53 8 -16 23 -52 39 -93 4 -13 13 -34 19
-48 17 -40 25 -64 26 -75 1 -5 7 -20 14 -32 13 -23 15 -23 222 -23 l209 0 20
29 c12 16 21 36 21 44 0 9 5 19 10 22 6 3 10 19 10 36 0 16 5 29 10 29 6 0 10
11 10 25 0 14 4 25 9 25 6 0 13 20 17 45 3 25 10 45 15 45 5 0 9 11 9 25 0 14
5 25 10 25 6 0 10 7 10 15 0 8 5 24 10 35 24 49 28 58 35 90 4 19 11 41 15 50
4 8 12 26 17 40 17 42 35 84 43 101 5 9 12 33 15 53 4 20 11 39 16 42 5 3 9
14 9 25 0 10 4 27 9 37 5 9 14 31 21 47 7 17 16 37 20 46 5 9 12 33 15 53 4
20 11 39 16 42 5 3 9 12 9 20 0 12 -28 14 -187 12 l-188 -3 -11 -55 c-10 -56
-18 -82 -35 -112 -5 -10 -9 -29 -9 -43 0 -14 -4 -25 -10 -25 -5 0 -10 -13 -10
-29 0 -17 -4 -33 -10 -36 -5 -3 -10 -17 -10 -30 0 -13 -4 -26 -10 -30 -5 -3
-7 -12 -4 -19 3 -8 1 -17 -5 -21 -6 -3 -11 -19 -11 -35 0 -16 -4 -32 -10 -35
-5 -3 -10 -19 -10 -36 0 -16 -4 -29 -10 -29 -5 0 -10 -13 -10 -30 0 -16 -4
-30 -10 -30 -5 0 -10 -13 -10 -29 0 -17 -4 -32 -9 -35 -4 -3 -6 -16 -4 -30 3
-13 0 -27 -6 -30 -6 -4 -11 -20 -11 -37 0 -16 -4 -29 -10 -29 -5 0 -10 9 -10
19 0 11 -4 23 -10 26 -5 3 -10 19 -10 36 0 16 -4 29 -10 29 -5 0 -10 13 -10
29 0 17 -5 33 -11 37 -6 3 -9 17 -6 30 2 14 0 27 -4 30 -5 3 -9 18 -9 35 0 16
-4 29 -10 29 -5 0 -10 13 -10 29 0 17 -4 33 -10 36 -5 3 -10 15 -10 26 0 10
-4 19 -10 19 -5 0 -10 13 -10 29 0 17 -5 33 -11 37 -6 3 -9 17 -6 30 2 14 0
27 -4 30 -5 3 -9 18 -9 35 0 16 -4 29 -10 29 -5 0 -10 9 -10 19 0 11 -4 23
-10 26 -5 3 -10 19 -10 36 0 16 -4 29 -10 29 -5 0 -10 13 -10 28 0 50 -10 52
-205 52 -100 0 -184 -3 -188 -6z"/>
<path d="M775 2791 c-8 -26 44 -121 72 -132 13 -5 23 -13 23 -19 0 -13 37 -13
45 -1 3 5 1 12 -5 16 -5 3 -10 14 -10 25 0 10 -16 32 -35 49 -19 17 -35 37
-35 46 0 8 -7 15 -15 15 -8 0 -15 5 -15 10 0 17 -18 11 -25 -9z"/>
<path d="M2890 2786 c0 -2 7 -9 15 -16 12 -10 15 -10 15 4 0 9 -7 16 -15 16
-8 0 -15 -2 -15 -4z"/>
<path d="M2802 2768 c-14 -14 -16 -54 -3 -62 4 -3 18 6 31 19 19 20 21 27 10
40 -15 18 -22 19 -38 3z"/>
<path d="M2185 2711 c-3 -5 -1 -12 5 -16 5 -3 10 1 10 9 0 18 -6 21 -15 7z"/>
<path d="M2647 2672 c-13 -15 -14 -22 -4 -42 26 -53 71 -19 52 39 -8 26 -27
27 -48 3z"/>
<path d="M2467 2673 c-12 -11 -8 -23 8 -23 8 0 15 7 15 15 0 16 -12 20 -23 8z"/>
<path d="M1790 2596 c0 -57 13 -116 26 -116 18 0 19 111 2 128 -18 18 -28 14
-28 -12z"/>
<path d="M7061 2568 c-10 -16 -8 -20 14 -28 58 -22 78 2 26 31 -26 15 -29 15
-40 -3z"/>
<path d="M6574 2496 c-14 -36 0 -51 45 -51 51 0 61 15 32 44 -24 24 -69 28
-77 7z"/>
<path d="M1287 2363 c-11 -10 -8 -53 3 -53 6 0 10 -6 10 -14 0 -16 37 -46 57
-46 22 0 15 51 -10 74 -42 38 -54 46 -60 39z"/>
<path d="M5990 2335 c0 -8 5 -15 10 -15 6 0 10 7 10 15 0 8 -4 15 -10 15 -5 0
-10 -7 -10 -15z"/>
<path d="M1233 2248 c-18 -23 4 -77 34 -84 15 -4 37 -18 49 -31 20 -22 54 -32
54 -15 -1 21 -13 52 -22 52 -15 0 -38 27 -38 44 0 16 -37 46 -56 46 -6 0 -16
-6 -21 -12z"/>
<path d="M610 2121 c0 -26 52 -71 83 -71 41 0 35 31 -13 61 -41 26 -70 30 -70
10z"/>
<path d="M6586 2023 c-10 -11 -7 -48 6 -61 15 -15 48 -16 48 -2 0 6 -7 13 -15
16 -8 4 -15 14 -15 24 0 20 -13 33 -24 23z"/>
<path d="M1022 1868 c7 -19 38 -22 38 -4 0 10 -9 16 -21 16 -12 0 -19 -5 -17
-12z"/>
<path d="M1080 1840 c0 -6 10 -15 23 -20 12 -6 30 -15 39 -22 14 -10 20 -10
30 0 9 9 7 16 -10 32 -22 21 -82 28 -82 10z"/>
<path d="M5678 1793 c7 -3 16 -2 19 1 4 3 -2 6 -13 5 -11 0 -14 -3 -6 -6z"/>
<path d="M5315 1470 c3 -5 8 -10 11 -10 2 0 4 5 4 10 0 6 -5 10 -11 10 -5 0
-7 -4 -4 -10z"/>
<path d="M5602 1464 c-11 -12 -11 -18 -2 -29 17 -21 40 -19 40 4 0 28 -22 42
-38 25z"/>
<path d="M1165 1286 c-16 -12 -17 -16 -6 -30 17 -20 38 -20 58 -1 12 12 13 19
3 30 -16 19 -31 19 -55 1z"/>
<path d="M6080 1261 c0 -19 35 -39 47 -27 7 7 -26 46 -39 46 -4 0 -8 -9 -8
-19z"/>
<path d="M1090 1219 c0 -24 23 -21 28 4 2 10 -3 17 -12 17 -10 0 -16 -9 -16
-21z"/>
<path d="M5285 1190 c-3 -5 -1 -10 4 -10 6 0 11 5 11 10 0 6 -2 10 -4 10 -3 0
-8 -4 -11 -10z"/>
<path d="M1426 1154 c-10 -25 -7 -31 14 -37 23 -6 43 14 34 37 -8 21 -40 21
-48 0z"/>
<path d="M4573 1143 c-22 -8 -14 -38 17 -68 16 -16 32 -26 36 -23 3 4 2 26 -3
50 -8 42 -22 53 -50 41z"/>
<path d="M1303 1106 c-4 -8 -19 -16 -33 -18 -14 -1 -26 -11 -28 -20 -3 -14 3
-18 26 -18 16 0 32 3 36 7 4 4 17 8 29 8 13 0 23 7 25 19 6 31 -39 49 -55 22z"/>
<path d="M1572 1086 c-12 -27 -7 -36 20 -36 21 0 25 32 5 49 -11 8 -16 5 -25
-13z"/>
<path d="M680 1071 c0 -5 -15 -12 -34 -15 -19 -4 -39 -13 -46 -21 -7 -8 -18
-15 -25 -15 -16 0 -26 -25 -19 -45 7 -16 24 -21 24 -6 0 5 24 12 53 16 36 5
61 15 80 33 37 35 36 62 -3 62 -16 0 -30 -4 -30 -9z"/>
<path d="M4446 1061 c-24 -26 -12 -67 21 -76 18 -4 29 -1 39 12 16 22 16 24 1
43 -29 36 -43 41 -61 21z"/>
<path d="M3812 1020 c0 -19 2 -27 5 -17 2 9 2 25 0 35 -3 9 -5 1 -5 -18z"/>
<path d="M3474 939 c4 -24 11 -48 17 -53 5 -6 9 -28 9 -49 l0 -39 38 7 c48 8
58 20 65 73 5 39 -4 55 -18 32 -3 -5 -15 -10 -26 -10 -10 0 -19 5 -19 10 0 6
-7 10 -15 10 -9 0 -20 11 -25 24 -5 13 -14 27 -21 32 -9 5 -10 -4 -5 -37z"/>
<path d="M3790 935 c0 -19 5 -35 10 -35 6 0 10 16 10 35 0 19 -4 35 -10 35 -5
0 -10 -16 -10 -35z"/>
<path d="M3665 870 c-10 -11 -15 -23 -12 -27 4 -3 7 -2 7 4 0 6 16 14 35 17
39 8 48 26 12 26 -13 0 -32 -9 -42 -20z"/>
<path d="M1967 853 c-12 -11 -8 -23 8 -23 8 0 15 7 15 15 0 16 -12 20 -23 8z"/>
<path d="M4385 850 c-3 -5 -1 -10 4 -10 6 0 11 5 11 10 0 6 -2 10 -4 10 -3 0
-8 -4 -11 -10z"/>
<path d="M4560 845 c0 -8 7 -15 15 -15 8 0 15 7 15 15 0 8 -7 15 -15 15 -8 0
-15 -7 -15 -15z"/>
<path d="M983 815 c-23 -26 -15 -45 17 -45 27 0 30 3 30 30 0 33 -25 41 -47
15z"/>
<path d="M3686 814 c-9 -23 4 -64 19 -64 17 0 28 34 20 60 -8 24 -30 26 -39 4z"/>
<path d="M2203 659 c-13 -13 -2 -71 15 -77 8 -2 12 9 12 37 0 42 -10 57 -27
40z"/>
<path d="M1327 600 c-26 -31 -22 -50 13 -50 28 0 30 3 30 35 0 40 -16 46 -43
15z"/>
<path d="M3083 583 c-30 -11 2 -83 36 -83 5 0 14 -7 21 -15 15 -18 66 -20 76
-3 4 6 2 14 -4 16 -7 2 -12 10 -12 17 0 7 -16 27 -35 44 -34 30 -55 36 -82 24z"/>
<path d="M2550 441 c-5 -11 -10 -31 -10 -45 0 -30 18 -81 26 -73 4 3 13 0 21
-8 8 -8 23 -15 34 -15 18 0 20 4 13 48 -4 26 -11 49 -15 50 -5 2 -9 9 -9 16 0
13 -31 46 -43 46 -3 0 -11 -9 -17 -19z"/>
<path d="M1897 404 c-4 -4 -7 -27 -7 -51 0 -48 25 -62 36 -19 11 46 -7 91 -29
70z"/>
</g>
</svg>
